<?xml version="1.0" encoding="UTF-8"?>
<svg width="91px" height="89px" viewBox="0 0 91 89" version="1.1" xmlns="http://www.w3.org/2000/svg" xmlns:xlink="http://www.w3.org/1999/xlink">
    <!-- Generator: Sketch 59.1 (86144) - https://sketch.com -->
    <title>Group 68 Copy</title>
    <desc>Created with Sketch.</desc>
    <defs>
        <polygon id="path-1" points="0 0.00344166667 8.67396 0.00344166667 8.67396 6.63185833 0 6.63185833"></polygon>
    </defs>
    <g id="Welcome" stroke="none" stroke-width="1" fill="none" fill-rule="evenodd">
        <g id="Landing-desktop" transform="translate(-99.000000, -1573.000000)">
            <g id="texto" transform="translate(99.000000, 1573.000000)">
                <g id="Group-68-Copy">
                    <path d="M9.06978911,62.2611952 L8.92056595,61.8807068 L9.63032557,61.1746577 C10.3319458,60.4720416 10.7258949,59.6561372 10.4600064,58.9792684 C10.2440397,58.4294198 9.73396784,58.2062762 9.25211268,58.4156879 C8.54615147,58.7240837 8.4571602,59.6452661 8.36599842,60.5870464 C8.29057289,61.5213885 8.08111783,62.4946377 7.15810474,62.8968683 C6.39625267,63.2298671 5.31859013,62.758977 4.80363456,61.4475795 C4.6142568,60.9652461 4.57573009,60.5561496 4.5795285,60.276934 C4.57898587,60.1087181 4.60448946,59.9593836 4.64030302,59.834652 C4.58386954,59.8094769 4.5301492,59.7940285 4.46883204,59.7808687 C4.35759296,59.7596987 4.23007498,59.7459668 4.09930123,59.7734306 L4,59.5199624 L6.00610193,58.6439809 L6.15478246,59.0250414 L5.74021339,59.4038133 C5.01363224,60.0675224 4.79875089,60.5973453 5.05161632,61.2410286 C5.2377383,61.7147796 5.62300538,61.8824233 6.03214816,61.7039085 C6.65020336,61.4344197 6.7147763,60.4749024 6.77229504,59.5188181 C6.83198431,58.570744 7.04957881,57.5448558 7.9964676,57.1306098 C8.92653488,56.7249463 10.1127234,57.2582022 10.724267,58.8150576 C11.0031787,59.5251119 11.0254265,60.1790942 10.983644,60.6728708 C10.9565125,60.9623853 10.9109316,61.2295854 10.8349635,61.4910638 L9.06978911,62.2611952 Z" id="Fill-1" fill="#AF6A3A"></path>
                    <path d="M7.07969547,51.8968763 L5.42139791,53.1147625 L5.4327367,53.1722721 L7.40908723,53.5568678 L7.07969547,51.8968763 Z M9.73353851,55 C9.69045112,54.9221224 9.62922167,54.8478391 9.56459059,54.754386 C9.45290354,54.61181 9.27545153,54.4159178 9.0242974,54.2272144 L3.05556006,53.1009842 L3,52.8194266 L8.13420264,49.0387677 C8.22491293,48.7937527 8.2906779,48.5637142 8.31732405,48.3714163 C8.3411355,48.2581943 8.34907265,48.1587505 8.3570098,48.0593068 L8.62347129,48 L9.33044464,51.5643988 L9.06398315,51.6231065 C9.02032882,51.5446299 8.97724144,51.4661532 8.91431117,51.382285 C8.81849842,51.2277279 8.67279501,51.0545999 8.49704382,50.8682927 L7.40511865,51.6674369 L7.79177128,53.6191699 L8.94605977,53.8330338 C9.10593666,53.5628584 9.19608002,53.3178434 9.24426986,53.140522 C9.27034907,53.0362858 9.29586134,52.9332478 9.30606625,52.843389 L9.57252774,52.7834831 L10,54.9412923 L9.73353851,55 Z" id="Fill-3" fill="#AF6A3A"></path>
                    <g id="Group-7" transform="translate(0.000000, 41.000000)">
                        <mask id="mask-2" fill="white">
                            <use xlink:href="#path-1"></use>
                        </mask>
                        <g id="Clip-6"></g>
                        <path d="M8.38596,6.58985833 C8.34756,6.49710833 8.29836,6.403775 8.24016,6.30169167 C8.13336,6.12494167 7.99716,5.92019167 7.80396,5.70669167 L2.66736,5.74110833 C2.52516,5.95635833 2.42136,6.16285833 2.34516,6.34019167 C2.30796,6.44285833 2.27016,6.53735833 2.24196,6.63069167 L1.95396,6.63185833 L1.93716,4.298525 L5.99676,1.285025 L5.99616,1.23835833 L2.78016,1.25935833 C2.58996,1.47519167 2.45676,1.68169167 2.35176,1.86019167 C2.29536,1.96285833 2.24856,2.056775 2.21076,2.15010833 L1.92276,2.15244167 L1.90776,0.00519166667 L2.19516,0.00344166667 C2.23476,0.0961916667 2.28336,0.188941667 2.34096,0.291608333 C2.44836,0.468358333 2.58456,0.672525 2.77776,0.886608333 L8.63436,0.847525 L8.63736,1.36085833 L3.33636,5.31644167 L3.33696,5.362525 L7.80096,5.33394167 C7.99176,5.11810833 8.12436,4.91160833 8.22936,4.73369167 C8.28576,4.63044167 8.33316,4.536525 8.37096,4.44319167 L8.65956,4.44085833 L8.67396,6.587525 L8.38596,6.58985833 Z M0.22116,3.199525 C0.33456,2.96560833 0.43836,2.75035833 0.43716,2.53510833 C0.43536,2.321025 0.31896,2.16294167 0.00216,2.13610833 L-0.00024,1.838025 C0.85476,1.83219167 1.24956,2.100525 1.25376,2.62260833 C1.25556,2.912525 1.15176,3.18435833 1.03836,3.418275 C0.93456,3.65219167 0.83016,3.87735833 0.83196,4.07335833 C0.83316,4.28744167 0.95916,4.44494167 1.26636,4.47060833 L1.26876,4.76985833 C0.43296,4.77569167 0.01896,4.517275 0.01476,3.98469167 C0.01296,3.69594167 0.11676,3.43344167 0.22116,3.199525 L0.22116,3.199525 Z" id="Fill-5" fill="#AF6A3A" mask="url(#mask-2)"></path>
                    </g>
                    <path d="M3,38.9435196 L3.63952113,35.5416171 L3.89908498,35.5980975 L3.94492285,35.8804994 C3.98468582,36.0541023 4.04156896,36.2794293 4.13103565,36.5219976 L7.20438203,37.1914388 C8.77115357,37.5332937 9.4819167,37.0570749 9.65698423,36.1248514 C9.8254246,35.2300832 9.30519238,34.3989298 8.00682089,34.1165279 L4.84732141,33.4286564 C4.63359543,33.6052319 4.47399128,33.783591 4.34586615,33.940547 C4.27462416,34.0309156 4.21332291,34.1147444 4.1619624,34.2003567 L3.9018463,34.1438763 L4.30444639,32 L4.5645625,32.0570749 C4.5811304,32.1581451 4.60763905,32.2604043 4.64022259,32.3739596 C4.70207611,32.5713436 4.78436337,32.803805 4.91745887,33.0558859 L8.07751062,33.7431629 C9.60065335,34.0755054 10.2153226,35.0725327 9.93366824,36.5731272 C9.57083112,38.5029727 8.49888767,39.2681332 6.88020335,38.9155767 L3.80685697,38.2461356 C3.63675982,38.4322235 3.50311205,38.6165279 3.40370462,38.7598098 L3.26011611,39 L3,38.9435196 Z" id="Fill-8" fill="#AF6A3A"></path>
                    <path d="M11.1919945,30.0418649 C11.6429553,29.0181985 11.2344451,27.9963524 9.15867182,27.1061813 C7.08289857,26.2172238 6.04747285,26.6195301 5.61619927,27.5989004 L5.43901412,27.9987796 L11.035727,30.3974479 L11.1919945,30.0418649 Z M10.0464433,32.8847086 C10.0550564,32.7924754 10.0630544,32.7008491 10.0575173,32.5922325 C10.0649,32.405339 10.0384453,32.172329 9.9935338,31.9083723 L5.02988869,29.781549 C4.80410066,29.9283939 4.61830235,30.0813067 4.47987645,30.2020593 L4.27069954,30.4083703 L4,30.292472 L5.215687,27.5327595 C6.23511684,25.218436 8.03896011,24.5096972 9.94370047,25.3264459 C11.8478256,26.1425877 12.5528749,27.9265708 11.533445,30.2408943 L10.317758,33 L10.0464433,32.8847086 Z" id="Fill-10" fill="#AF6A3A"></path>
                    <path d="M15.0884886,22.3756286 C15.5084445,21.7812705 15.3272754,20.7152761 13.3569875,19.2865308 C11.3872936,17.8589887 10.332355,18.029235 9.9118051,18.6241946 C9.49184925,19.2185526 9.67301832,20.284547 11.6433063,21.7126908 C13.6130002,23.1402329 14.6679388,22.9699866 15.0884886,22.3756286 M9.64153649,18.4280805 C10.7469648,16.8633788 12.8016003,16.5186752 14.4630098,17.7224307 C16.1244193,18.9261862 16.4641856,21.007041 15.3587573,22.5717427 C14.2527349,24.137046 12.1980994,24.481148 10.5366899,23.2773925 C8.8758744,22.0736369 8.53551414,19.9927822 9.64153649,18.4280805" id="Fill-12" fill="#AF6A3A"></path>
                    <path d="M20.2843926,8.57679012 C20.7114038,8.23895016 21.1554486,8.07277933 21.4878947,7.99397037 C21.6805491,7.95181674 21.8732034,7.92249247 22.0476495,7.91943786 C22.0617462,7.85895657 22.0635083,7.79664251 22.0611588,7.71233525 C22.0588094,7.57976514 22.0482369,7.40381955 21.9771662,7.17777835 L22.201538,7 L23.935427,9.37343262 L23.5994566,9.63918377 L22.7683412,9.06858246 C21.9384004,8.49737023 21.2018501,8.28171471 20.6332848,8.7307425 C19.9971732,9.23353145 19.8391731,10.3900071 21.2664597,12.3431253 C22.6937464,14.2962435 23.8073823,14.4465303 24.4429067,13.9443523 C25.0420146,13.4708876 25.0179328,12.6308696 24.7113305,11.6454522 L24.4517171,10.806656 L24.7888621,10.540294 L26,12.1977258 C25.9207063,12.4445384 25.8149814,12.6876854 25.6757769,12.9332761 C25.4320222,13.3590888 25.0760815,13.8740962 24.529836,14.3054073 C23.0714193,15.4588283 20.9645563,15.1600874 19.7698645,13.5258706 C18.5475668,11.8525548 18.8259758,9.73021117 20.2843926,8.57679012" id="Fill-14" fill="#AF6A3A"></path>
                    <path d="M29.1566464,7.60794393 L27.6795367,6.32570093 L27.6315499,6.34859813 L27.7484832,8.2779595 L29.1566464,7.60794393 Z M27,10.7639408 C27.0601213,10.7061526 27.1125207,10.6330997 27.180364,10.5518692 C27.2818533,10.4166667 27.4147821,10.2089564 27.5256481,9.93309969 L27.1412024,4.11339564 L27.3800331,4 L31.957529,7.96993769 C32.1980143,8.00046729 32.4191947,8.01191589 32.5968009,7.99501558 C32.7032543,7.99283489 32.7942637,7.97866044 32.885273,7.96394081 L33,8.2 L29.9779371,9.63816199 L29.8632101,9.40155763 C29.9233315,9.34431464 29.9834528,9.28652648 30.0441258,9.20965732 C30.1599559,9.0864486 30.2813017,8.91308411 30.4070601,8.70755452 L29.4362934,7.86199377 L27.7821291,8.64922118 L27.8599007,9.77445483 C28.1389961,9.86386293 28.3794815,9.89439252 28.5488141,9.90093458 C28.6480971,9.90311526 28.7462769,9.90420561 28.8295643,9.89330218 L28.9442912,10.1299065 L27.114727,11 L27,10.7639408 Z" id="Fill-16" fill="#AF6A3A"></path>
                    <path d="M34.4036474,7.73541076 C34.4893617,7.67988669 34.5732523,7.61586402 34.6644377,7.54050992 C34.8212766,7.40453258 34.9993921,7.23626062 35.1738602,7.01416431 L34.0151976,2.28725212 C33.7647416,2.20056657 33.5325228,2.14844193 33.3537994,2.11161473 L33.0650456,2.07082153 L33,1.80623229 L35.7015198,1.23116147 L38.1756839,4.60793201 L38.2224924,4.59830028 L38.8486322,0.560906516 L41.4832827,0 L41.5483283,0.264589235 L41.3069909,0.418696884 C41.1629179,0.523512748 40.9787234,0.665155807 40.7933131,0.843626062 L41.9841945,5.70311615 C42.2346505,5.78866856 42.468693,5.8509915 42.6455927,5.87875354 C42.7507599,5.901983 42.8425532,5.91048159 42.9343465,5.91954674 L43,6.18413598 L39.6340426,6.90084986 L39.568997,6.63569405 C39.6297872,6.59433428 39.6984802,6.55240793 39.7635258,6.4917847 C39.881459,6.40169972 40.03769,6.26572238 40.2303951,6.07648725 L39.1586626,1.70368272 L39.1112462,1.71331445 L38.2601824,7.19320113 L37.9282675,7.26402266 L34.5610942,2.68215297 L34.5136778,2.69291785 L35.5531915,6.9325779 C35.8145897,7.06288952 36.0528875,7.14220963 36.2571429,7.20113314 C36.3744681,7.23172805 36.4802432,7.25609065 36.5835866,7.27082153 L36.6486322,7.53597734 L34.468693,8 L34.4036474,7.73541076 Z" id="Fill-18" fill="#AF6A3A"></path>
                    <path d="M45.9927226,3.33433005 C46.6986684,3.33005472 47.1509149,2.90038378 47.1433678,1.83155061 C47.1358207,0.763786261 46.6789298,0.33945949 45.9729839,0.343175905 L45.5555703,0.345338072 L45.5753089,3.33646772 L45.9927226,3.33433005 Z M43.0383161,5.74401445 C43.121915,5.71782804 43.2049333,5.69164163 43.2978209,5.64835388 C43.464438,5.58743039 43.6583409,5.48375358 43.8714019,5.35442476 L43.8400523,0.65423086 C43.6252497,0.527574129 43.420897,0.434585642 43.2624075,0.367249152 L43.0017416,0.274260666 L43,0.0182751196 L46.2493246,0.000104955588 C48.1059156,-0.0105833762 48.9929922,0.796385673 49,1.82139669 C49.0069254,2.84747654 48.1302986,3.66406509 46.2737076,3.67475342 L45.5776311,3.67849434 L45.5886615,5.34533968 C45.8028835,5.47146199 46.0449718,5.57246673 46.2586133,5.63178697 C46.3799478,5.67400588 46.4914129,5.69858904 46.6121668,5.72370662 L46.6139084,5.97969217 L43.0400578,6 L43.0383161,5.74401445 Z" id="Fill-20" fill="#AF6A3A"></path>
                    <path d="M53.4564536,7.60821716 C54.0836767,7.746536 54.8666531,7.14892769 55.2802414,4.78332091 C55.6938298,2.41653192 55.1713193,1.53105492 54.5435701,1.39096277 C53.9158208,1.25264393 53.1333706,1.85202556 52.7197823,4.21763233 C52.3056677,6.58383022 52.8287044,7.46989832 53.4564536,7.60821716 M54.600399,1.0670366 C56.2521215,1.43174909 57.2813566,3.15305017 56.9319639,5.14685119 C56.5830974,7.14242552 55.0513471,8.29744692 53.3996247,7.93332554 C51.747376,7.56861305 50.7186671,5.84731196 51.0680598,3.85232874 C51.4169263,1.85734551 52.9486766,0.701733004 54.600399,1.0670366" id="Fill-22" fill="#AF6A3A"></path>
                    <path d="M59.7100874,5.92994981 L60.0627482,6.09134638 L60.0373312,7.15043776 C60.0150913,8.20069355 60.2793222,9.09721028 60.9062748,9.38407207 C61.4156738,9.61733135 61.9134234,9.38642823 62.107228,8.86336196 C62.3910511,8.09643373 61.8488218,7.35895742 61.2933545,6.60439899 C60.7320625,5.86868979 60.2380196,4.99926884 60.6086841,3.99731421 C60.9158062,3.16912596 61.966905,2.68140201 63.1816256,3.23804347 C63.6274821,3.44243986 63.9229547,3.71045242 64.1035213,3.91543784 C64.2141912,4.03736883 64.2952078,4.16636828 64.3518666,4.28476504 C64.4074662,4.2582583 64.4551231,4.22880637 64.5059571,4.19169694 C64.5959756,4.12042327 64.6934075,4.03206748 64.7648928,3.91190361 L65,4.02028671 L64.1935398,6.19914044 L63.840879,6.03833291 L63.8774159,5.44340393 C63.9420175,4.40198372 63.7423881,3.85241071 63.1466773,3.57968585 C62.708234,3.37823465 62.3317448,3.55200104 62.1670638,3.99672517 C61.9187186,4.66764012 62.5033095,5.41571912 63.0916071,6.15378447 C63.6719619,6.88831559 64.1956579,7.80191443 63.8149325,8.8303758 C63.4405613,9.84175505 62.274027,10.3671775 60.8326714,9.70686522 C60.1739476,9.40527746 59.7302092,8.94700544 59.434207,8.55647286 C59.2637014,8.3249807 59.1191422,8.09643373 59,7.84844848 L59.7100874,5.92994981 Z" id="Fill-24" fill="#AF6A3A"></path>
                    <path d="M14.8790332,70.1861052 C15.0621385,70.407678 15.0349548,70.6964407 14.8138948,70.8790332 C14.5928349,71.0621385 14.3040722,71.0349548 14.1209668,70.8138948 C13.9378615,70.5928349 13.9650452,70.3040722 14.1861052,70.1209668 C14.4071651,69.9378615 14.6964407,69.9650452 14.8790332,70.1861052" id="Fill-26" fill="#AF6A3A"></path>
                    <path d="M17.1108381,77.9710744 C17.1883702,78.0029516 17.2659023,78.0348288 17.3674584,78.0637544 C17.5279825,78.120425 17.7567568,78.175915 18.035763,78.2396694 L21.1861862,74.0726092 C21.0802621,73.7957497 20.978706,73.5720189 20.8946219,73.3996458 L20.7592138,73.1463991 L20.8695059,73 L23,74.8825266 L22.8891619,75.0289256 L22.6319956,74.9356553 C22.4594595,74.8807556 22.2295932,74.8116883 21.964237,74.7603306 L18.8132678,78.9273908 C18.9131859,79.1983471 19.015834,79.4350649 19.1053781,79.5997639 C19.1523342,79.701889 19.1965602,79.7780401 19.2407862,79.8536009 L19.1299481,80 L17,78.1174734 L17.1108381,77.9710744 Z" id="Fill-28" fill="#AF6A3A"></path>
                    <path d="M21.0973623,81.2481655 C21.2127546,81.2593473 21.3287479,81.270529 21.4537563,81.2660563 C21.6647078,81.2671745 21.9549917,81.2487246 22.2428715,81.1984066 L24.9137229,76.9532462 C24.7538564,76.7111608 24.608414,76.5182752 24.4900167,76.3701167 L24.3025042,76.1543085 L24.3998664,76 L26.1007012,76.92641 L26.403005,82.3758474 L26.4444741,82.3982109 L28.5083139,79.1180376 C28.4391987,78.8731568 28.3099833,78.6372213 28.196995,78.4616675 C28.1320868,78.3532043 28.0611686,78.2531274 27.9944574,78.1647914 L28.0912187,78.0099238 L30,79.0492697 L29.9026377,79.2035782 C29.7872454,79.1929555 29.6586311,79.1845692 29.5246077,79.1845692 C29.3058431,79.1789783 29.0203673,79.189601 28.7577295,79.2538961 L25.7707513,84 L25.4389983,83.8194144 L25.0826043,77.3043539 L25.0411352,77.2819904 L22.4916861,81.3337061 C22.5854424,81.592005 22.7104508,81.8363268 22.814424,82.0068488 C22.8715192,82.1102802 22.9382304,82.1986163 23.0055426,82.2875114 L22.9081803,82.4412607 L21,81.402474 L21.0973623,81.2481655 Z" id="Fill-30" fill="#AF6A3A"></path>
                    <path d="M29.0595926,85.2858683 C29.1763454,85.2725251 29.2930982,85.2585754 29.4159319,85.2264304 C29.6245059,85.1809421 29.9066586,85.0972437 30.1790818,84.9807939 L31.8099726,79.8970281 C31.5947096,79.675652 31.4049863,79.5027967 31.2529644,79.3723971 L31.0164184,79.1849855 L31.0760109,79 L33.1611432,79.6659478 L33.5095774,85.0754094 L33.5284281,85.082081 L36.9610824,80.8783611 L39,81.5291462 L38.9404074,81.7141317 L38.638796,81.7299009 C38.4393433,81.7480962 38.1748252,81.7753892 37.8805108,81.8342206 L36.1900274,87.1029719 C36.395561,87.3213155 36.5919732,87.5069075 36.7470356,87.6269964 C36.8346002,87.7058427 36.9087869,87.7604286 36.9835816,87.8150145 L36.9239891,88 L34.0975981,87.0975133 L34.1565825,86.9131343 C34.2490119,86.9119213 34.3414412,86.9107083 34.4490727,86.893726 C34.6363636,86.8822023 34.8668288,86.8336815 35.124658,86.7633264 L36.7403466,81.7250489 L36.694132,81.7104926 L32.6606871,86.6389918 L32.4758285,86.5795539 L32.0605047,80.2318216 L32.013682,80.2166588 L30.4569778,85.0693443 C30.610824,85.3228654 30.7920341,85.5533392 30.9355427,85.7116383 C31.0170265,85.8086798 31.103983,85.8875261 31.1909395,85.9663724 L31.131955,86.1513579 L29,85.4708538 L29.0595926,85.2858683 Z" id="Fill-32" fill="#AF6A3A"></path>
                    <path d="M42.7398522,88.749777 C43.7204213,88.8396998 44.6394952,88.0100118 44.8273351,85.6678219 C45.014616,83.3262314 44.2403353,82.3406772 43.2597662,82.2501549 C42.2797562,82.1596326 41.3601232,82.98992 41.1728423,85.33211 C40.9850024,87.6737004 41.7592831,88.6598541 42.7398522,88.749777 M43.2787738,82.0109601 C44.8832398,82.1584336 46.1466869,83.7674527 45.9862403,85.7745303 C45.8246756,87.7911996 44.3253105,89.1364451 42.7208445,88.9889717 C41.1163786,88.8414982 39.8523724,87.2420709 40.0139371,85.2254015 C40.1743837,83.218324 41.6743078,81.8634867 43.2787738,82.0109601" id="Fill-34" fill="#AF6A3A"></path>
                    <path d="M51.5722428,88.3759305 C52.5222717,88.2658358 52.9383632,87.66929 52.8300119,86.5940716 C52.722219,85.5194514 52.1966592,85.0318037 51.2466303,85.1413 L50.2251118,85.2591732 L50.5507244,88.4938037 L51.5722428,88.3759305 Z M50.907055,84.8917919 C51.7330943,84.7966557 52.1072973,84.3197781 52.020728,83.4635524 C51.9397437,82.6545956 51.4560723,82.2297736 50.648464,82.3225164 L49.9380367,82.4050875 L50.1966277,84.9737646 L50.907055,84.8917919 Z M48.651225,88.8097276 C48.7282997,88.7720321 48.8048158,88.7343367 48.8980873,88.6751009 C49.0511196,88.5901365 49.2527424,88.4513215 49.4962537,88.2789993 L48.9500289,82.8556381 C48.6869698,82.7419533 48.463565,82.6617757 48.2870752,82.6049333 L48.0189894,82.5301407 L48,82.3398683 L50.5752989,82.0424929 C52.3954895,81.8318769 53.0846933,82.4266277 53.1751723,83.3301224 C53.2902258,84.4717567 52.2754094,84.8301628 51.8933872,84.8738417 L51.8978553,84.921709 C53.0522996,84.788279 53.8889506,85.5092796 53.9894828,86.5085088 C54.0944831,87.5550069 53.4214761,88.4507231 51.6007269,88.6613391 L48.6702144,89 L48.651225,88.8097276 Z" id="Fill-36" fill="#AF6A3A"></path>
                    <path d="M56.4431393,86.8214757 C56.5087131,86.7735226 56.5737705,86.7249917 56.6512198,86.6545064 C56.7803021,86.5487785 56.9460436,86.3846979 57.1458629,86.1819082 L55.9361043,81.090789 C55.6810378,81.0231925 55.4657287,80.9821723 55.2974054,80.9555959 L55.042339,80.9267085 L55,80.7481842 L57.5145218,80 L57.5568607,80.1785243 L57.3487802,80.3454936 C57.2140183,80.4621987 57.0379502,80.6199241 56.8541371,80.817514 L58.0638957,85.9086332 C58.3112172,85.9791185 58.5363366,86.0264939 58.7025946,86.0438263 C58.8012134,86.062892 58.879179,86.0680918 58.957661,86.0732915 L59,86.2518158 L56.4859946,87 L56.4431393,86.8214757 Z" id="Fill-38" fill="#AF6A3A"></path>
                    <path d="M61.3931289,85.8323558 C61.4570353,85.7747638 61.5203812,85.7177419 61.5938176,85.6362007 C61.7177064,85.5130336 61.8729879,85.3265722 62.059662,85.0967742 L60.0538961,80.3149234 C59.7696805,80.2886934 59.5331144,80.2829912 59.3486826,80.2835614 L59.0706335,80.295536 L59,80.1273216 L61.5983022,79 L61.6689357,79.1676442 L61.468247,79.3637993 C61.3398735,79.498941 61.1722591,79.6802704 61.0024025,79.9032258 L63.1314968,84.978739 L65.0285097,84.155914 C65.1047489,83.6164875 65.0772804,83.1329423 65.030752,82.766292 C65.0072075,82.5484686 64.9746937,82.3540241 64.9253624,82.1669925 L65.1731401,82.0597915 L66,84.0316064 L61.4637623,86 L61.3931289,85.8323558 Z" id="Fill-40" fill="#AF6A3A"></path>
                    <path d="M68.3455948,82.8431678 C68.4037378,82.7765285 68.4618807,82.7104637 68.52655,82.6185474 C68.6386829,82.4778006 68.7739543,82.2692655 68.9359241,82.0136233 L66.131415,77.5350021 C65.8300208,77.5505129 65.5814298,77.5780878 65.3880154,77.6056627 L65.0984871,77.6573656 L65,77.5005334 L67.5559181,76 L67.6544052,76.1568322 L67.47345,76.3814526 C67.3583506,76.5348379 67.2094334,76.7405006 67.0646692,76.9869512 L69.868585,81.4655724 C70.1616731,81.4546574 70.4233165,81.4299549 70.6119846,81.3943373 C70.7258974,81.3811243 70.8137051,81.3615921 70.9015129,81.3426344 L71,81.500041 L68.4440819,83 L68.3455948,82.8431678 Z" id="Fill-42" fill="#AF6A3A"></path>
                    <path d="M74.1357548,75.7644618 L71.8487034,74.5456838 L71.8120385,74.5747295 L72.6733642,76.9200228 L74.1357548,75.7644618 Z M72.7058217,79.8598975 C72.7569122,79.7608006 72.8146145,79.6560085 72.8596943,79.5369783 C72.940237,79.3433407 73.052035,79.1001546 73.0899021,78.8450085 L71,73.1401025 L71.1773141,73 L76.8904345,76.0207469 C77.1675253,75.9797413 77.4115576,75.9296233 77.5948824,75.8675454 C77.7066804,75.8384997 77.7920316,75.8066065 77.8767817,75.7752827 L78,75.9153852 L75.6366134,77.7822797 L75.5133952,77.6427467 L75.6744805,77.3847531 C75.771853,77.2247173 75.8890606,77.002034 75.9744118,76.7440404 L74.4020264,75.9102595 L72.7767474,77.1939631 L73.3189078,78.6639004 C73.5911901,78.6741518 73.8634724,78.6137824 74.0786536,78.5739159 C74.2108879,78.5528435 74.3298987,78.5181027 74.4416967,78.489057 L74.564915,78.62859 L72.82904,80 L72.7058217,79.8598975 Z" id="Fill-44" fill="#AF6A3A"></path>
                    <path d="M77.4003862,70.478426 C78.0080984,69.7215618 77.9280262,69.0186281 77.1679378,68.376366 C76.3923129,67.7224599 75.6585169,67.7880343 75.0753044,68.5148691 L74.5279451,69.1963533 L76.8530269,71.1599102 L77.4003862,70.478426 Z M78.0200495,74.8749795 C78.0523174,74.7885683 78.0851829,74.7015442 78.114463,74.5869421 C78.1724257,74.4073784 78.2297909,74.151209 78.2955218,73.838045 L74.0875479,70.2853797 C73.8066976,70.4036589 73.5796272,70.5170353 73.4051415,70.6108006 L73.1475958,70.7615606 L73,70.637153 L74.9145624,68.2525712 C76.0385611,66.8522193 77.1828766,66.7376172 77.9208556,67.3614939 C78.6295544,67.9596311 78.7807355,68.9132186 78.0881706,69.8527108 L78.125219,69.883353 C78.8829172,69.0627529 79.6459934,69.3011498 80.2363765,69.7227875 C80.841101,70.157295 81.3735214,70.6193805 81.6591521,70.2639301 C81.8109308,70.0745608 81.7918091,69.8674191 81.4667398,69.5934771 L81.1643776,69.3379206 L81.3161563,69.1485513 L81.5748971,69.3667243 C82.0917811,69.8030703 82.1371952,70.2859925 81.7117369,70.8161039 C81.0066234,71.6943115 80.3062903,71.2555141 79.6298594,70.7860744 C78.9540261,70.3166348 78.2901438,69.8324869 77.6220787,70.6653439 L77.0753169,71.3468281 L78.9940622,72.9671915 C79.2689369,72.8562665 79.5091536,72.7416644 79.6764686,72.6417706 C79.780443,72.5896787 79.8569299,72.5400382 79.9340143,72.4903977 L80.0816101,72.6148054 L78.1670477,75 L78.0200495,74.8749795 Z" id="Fill-46" fill="#AF6A3A"></path>
                    <path d="M84.3681967,68.9026187 C84.3865574,68.8141989 84.404918,68.7251817 84.4169672,68.610475 C84.4462295,68.4282585 84.4634426,68.172558 84.4806557,67.8612964 L79.9811475,65.0832421 C79.7315574,65.2409639 79.532459,65.3843473 79.3804098,65.5014438 L79.1577869,65.6866474 L79,65.5886687 L80.4740164,63 L80.632377,63.0973813 L80.5830328,63.3889276 C80.5572131,63.5842876 80.527377,63.8435726 80.5193443,64.1381061 L85.0188525,66.9155631 C85.2638525,66.7674002 85.4755738,66.6198347 85.6195902,66.4979588 C85.7108197,66.4322414 85.7768033,66.3724983 85.8422131,66.3133526 L86,66.4107338 L84.5259836,69 L84.3681967,68.9026187 Z" id="Fill-48" fill="#AF6A3A"></path>
                    <path d="M84.7736465,59.6693018 L82.3425955,59.6178684 L82.3258758,59.6601581 L84.1126592,61.3471759 L84.7736465,59.6693018 Z M85.4976115,63.931422 C85.4931529,63.8211258 85.4914809,63.7022574 85.4736465,63.5765311 C85.4496815,63.3696543 85.4290605,63.1044861 85.3421178,62.8616059 L81,58.756072 L81.0802548,58.5526241 L87.1422771,58.6589199 C87.3496019,58.4989047 87.5251592,58.3451757 87.6466561,58.2074483 C87.7246815,58.1320126 87.7798567,58.0657205 87.8344745,58 L88,58.0680065 L86.9316083,60.7796933 L86.7660828,60.7111153 L86.7789013,60.4110868 C86.7844745,60.2259263 86.7772293,59.9767597 86.7281847,59.7098771 L85.0584395,59.6784456 L84.3238854,61.5426231 L85.4457803,62.5987237 C85.6726115,62.4861415 85.8671178,62.3101248 86.0248408,62.1786837 C86.1223726,62.100962 86.203742,62.0163825 86.2823248,61.9403753 L86.447293,62.0083818 L85.6625796,64 L85.4976115,63.931422 Z" id="Fill-50" fill="#AF6A3A"></path>
                    <path d="M87.4033967,49.0011044 C87.4960564,48.1225842 87.0719819,47.6361126 86.1397002,47.5438984 C85.1897961,47.4494754 84.6423648,47.8746549 84.5536844,48.7178355 L84.4701201,49.5085588 L87.3204009,49.7923799 L87.4033967,49.0011044 Z M90.1513539,51.9823302 C90.133163,51.9006074 90.1144037,51.8188846 90.0791589,51.7172833 C90.0325448,51.5527333 89.9461382,51.3313087 89.836993,51.0629486 L84.680452,50.5510768 C84.519008,50.783545 84.3973567,50.9845389 84.3075393,51.1441193 L84.1813402,51.3892877 L84,51.3710657 L84.2916223,48.6029818 C84.4627301,46.9773606 85.3103106,46.3070127 86.2147375,46.3970182 C87.0833512,46.4831585 87.6927451,47.1209277 87.6268032,48.1794589 L87.6717119,48.1844285 C87.8507782,47.1811154 88.5767073,46.9685257 89.2611385,46.9834346 C89.9631921,47 90.6226109,47.0745445 90.6663827,46.661513 C90.6891212,46.4417449 90.5674698,46.2965213 90.1695447,46.2567642 L89.7983374,46.2197681 L89.8216445,46 L90.1382792,46.0320265 C90.7715486,46.094423 91.0557808,46.4340144 90.9909759,47.0485919 C90.8841045,48.0679183 90.1036028,48.0971839 89.3270804,48.0911099 C88.5511264,48.0850359 87.7763094,48.0612921 87.6751227,49.0281612 L87.5915584,49.8188846 L89.9432959,50.0524572 C90.1041713,49.8288239 90.2354866,49.6200994 90.316777,49.4594147 C90.3724865,49.3672004 90.4077313,49.2904473 90.4429761,49.2142463 L90.6243163,49.2319161 L90.332694,52 L90.1513539,51.9823302 Z" id="Fill-52" fill="#AF6A3A"></path>
                    <path d="M84.609234,44 L84.3372231,41.3258148 L84.524047,41.3103632 L84.6521213,41.5479975 C84.7437707,41.7030459 84.8677325,41.9065802 85.0316441,42.1239677 L88.5883488,41.8261256 C90.1234775,41.6977178 90.7691363,40.9933398 90.6792493,40.1104698 C90.5893623,39.2275997 89.8215042,38.6415061 88.4173872,38.7592576 L84.9076823,39.0523044 C84.7408333,39.2632981 84.6121715,39.4881449 84.5258095,39.6581121 C84.4699973,39.7572152 84.4235851,39.8552526 84.3859853,39.9522245 L84.1985739,39.9682089 L84,38.0159844 L84.1874114,38 C84.2438111,38.0895125 84.3090232,38.1779593 84.3842228,38.2658734 C84.5034846,38.4187905 84.6750336,38.6185952 84.8818325,38.7976201 L88.3915374,38.5045733 C89.9924657,38.3703046 90.8513858,39.0171388 90.9818101,40.2990853 C91.1333842,41.7930912 90.3349763,42.6647722 88.6876357,42.8022378 L85.130931,43.1006127 C85.0146067,43.3494361 84.9329447,43.5620282 84.874195,43.7293313 L84.7960579,43.9845484 L84.609234,44 Z" id="Fill-54" fill="#AF6A3A"></path>
                    <path d="M86.1693883,33.2017393 C85.9127816,32.2706978 85.3379377,31.9500259 84.4532609,32.2372944 C83.552336,32.5294216 83.2184111,33.1853413 83.4649328,34.0787282 L83.6963271,34.9156331 L86.4007826,34.0386442 L86.1693883,33.2017393 Z M89.8285553,35.1075503 C89.7798113,35.032241 89.7310672,34.9569317 89.6593518,34.8676538 C89.5534595,34.7200718 89.3887381,34.5299766 89.1853577,34.3022267 L84.2919012,35.8885806 C84.2353132,36.1910324 84.2022569,36.4448976 84.1826472,36.6441028 L84.1624773,36.9447327 L83.9904723,37 L83.1814328,34.0690108 C82.7068784,32.3472217 83.2184111,31.3196142 84.0767549,31.0414557 C84.9009219,30.7742292 85.7026779,31.173247 86.0539713,32.2755564 L86.0971126,32.2615878 C85.8702006,31.1689956 86.4495267,30.6570139 87.0781571,30.392824 C87.7235958,30.1225609 88.3527866,29.9282143 88.2323271,29.4909345 C88.167335,29.258326 88.0009328,29.1605453 87.622746,29.2832266 L87.2708923,29.3974052 L87.2070207,29.1647967 L87.507329,29.0670161 C88.1079456,28.8726695 88.4984585,29.1010267 88.6783073,29.7520877 C88.9758142,30.8313185 88.2771492,31.1793203 87.5678389,31.4908822 C86.8585286,31.8018367 86.1447362,32.0945712 86.4265553,33.1179273 L86.6585099,33.9554396 L88.8900919,33.2321059 C88.9494812,32.9387641 88.9881403,32.6727522 88.9999061,32.4765836 C89.0144733,32.3599757 89.0172747,32.2676611 89.0195158,32.1759538 L89.1915207,32.1200792 L90,35.0516757 L89.8285553,35.1075503 Z" id="Fill-56" fill="#AF6A3A"></path>
                    <path d="M83.2190998,24.6124166 L81.6059379,26.5050769 L81.6264984,26.5462721 L84.0320711,26.2434001 L83.2190998,24.6124166 Z M86.8421846,26.8508848 C86.7577201,26.7818393 86.66881,26.7046707 86.5643407,26.6356252 C86.3954116,26.5184218 86.1859173,26.3600232 85.9503056,26.2683493 L80.0983568,27 L80,26.8021468 L84.0065095,22.0693357 C84.0220687,21.7989556 84.0220687,21.5581665 83.9992855,21.3719176 C83.9937287,21.2599362 83.9803922,21.172904 83.9670556,21.0858718 L84.124871,21 L85.4390728,23.6353351 L85.2812574,23.7212068 L85.0673176,23.5129098 C84.9339525,23.3870032 84.744463,23.2280244 84.5155196,23.0905135 L83.4102564,24.3930954 L84.3138049,26.2051059 L85.8230531,26.0130548 C85.8864015,25.7589208 85.881956,25.4885408 85.8864015,25.2767624 C85.8930698,25.1479547 85.8825117,25.0278503 85.8769548,24.9152887 L86.0347702,24.8299971 L87,26.7655933 L86.8421846,26.8508848 Z" id="Fill-58" fill="#AF6A3A"></path>
                    <path d="M82.8517619,19.150315 C82.7779359,19.1010789 82.7041098,19.052422 82.6039173,18.9997104 C82.4492341,18.9076099 82.2224826,18.7992904 81.9453419,18.6706973 L77.7132334,21.8976902 C77.7624508,22.188473 77.8181133,22.4271233 77.8679166,22.6119036 L77.9522893,22.8864673 L77.8034653,23 L76,20.6876403 L76.1482381,20.5746868 L76.3960827,20.7252914 C76.5642421,20.8191297 76.7886499,20.9401926 77.0546581,21.0537253 L81.5463296,17.6292086 L80.2291789,15.9406994 C79.6731397,16.0020998 79.1991295,16.1532836 78.846405,16.2928825 C78.6354733,16.3716603 78.4509082,16.4539135 78.2780614,16.5512273 L78.1063865,16.3305336 L79.8506738,15 L83,19.0373615 L82.8517619,19.150315 Z" id="Fill-60" fill="#AF6A3A"></path>
                    <path d="M72.1856543,12.8787756 C71.9646691,12.6956708 71.9380073,12.4069089 72.1215635,12.1853367 C72.304607,11.9647903 72.5932722,11.9381196 72.8142575,12.1212244 C73.0352427,12.3043292 73.0619045,12.5930911 72.878861,12.8146633 C72.6953048,13.0352097 72.4066396,13.0618804 72.1856543,12.8787756" id="Fill-62" fill="#AF6A3A"></path>
                    <path d="M43.2148961,27.7441602 C43.265946,27.7652948 43.3188635,27.7847608 43.370536,27.8047831 C43.7509197,27.9154616 46.8730545,29 48.080197,29 C49.676439,29 51,27.8870968 51,25 L50.0269398,25 C50.0269398,25.8375973 49.6944932,26.3331479 49.0221292,26.4983315 C48.8571509,26.5389321 48.6766087,26.5650723 48.4692965,26.5650723 C47.7091516,26.5650723 44.6897391,25.5072303 44.6897391,25.5072303 C44.027336,25.3209121 43.3288245,25.1740823 42.6296904,25.1740823 C41.4349992,25.1740823 40.4613164,25.7452725 40,27.118465 C40.1687136,27.0756396 40.3536137,27.0483871 40.5677741,27.0483871 C41.3459732,27.0483871 42.241836,27.4310345 43.2148961,27.7441602" id="Fill-64" fill="#AF6A3A"></path>
                    <path d="M48.5001417,46.2707966 C44.7312206,44.6923833 41.0002835,42.9563613 41.0002835,39.7210212 C41.0002835,37.1568266 42.884744,35.1841008 45.6156245,35.1841008 C48.5386927,35.1841008 50.2309655,36.9590887 51.7696015,40.9045403 L52.5389194,42.8778477 L53.692613,42.8778477 L53.692613,34 L52.923295,34 C52.9198934,34.0191922 52.9130903,34.0360581 52.9091218,34.0546687 L52.9091218,37.2423191 C52.9091218,37.2423191 52.0485288,36.3804147 51.0274959,35.7168298 C50.6884744,35.5237446 50.3324451,35.3405463 49.9616758,35.1841008 C48.8459663,34.7101115 47.2307954,34.1971563 45.4234367,34.1971563 C40.2309655,34.1971563 37.1542604,37.3539828 37.1542604,41.1022782 C37.1542604,45.7182938 40.7309938,47.8096623 44.2697432,49.5852318 C47.8464766,51.2817062 51.384659,53.0572758 51.384659,56.4897722 C51.384659,59.8431734 49.3080107,62.0136371 45.8078122,62.0136371 C45.7494189,62.0136371 45.6938602,62.0066581 45.6360338,62.0054949 C43.4528034,61.966529 41.0246613,61.1825566 38.6401723,59.5343534 C37.203583,58.5258904 36.9887182,57.6540991 36.9649073,56.9300297 L36.9649073,54.219858 L36,54.219858 L36,57.3214343 L36,58.4409795 L36,58.6602358 C36.7698849,59.4884085 37.6542888,60.19852 38.6543455,60.8301179 C40.3466183,61.934542 42.7696581,63 45.8078122,63 C52.153977,63 56,59.0150008 56,54.9113589 C56,50.2953433 52.2690629,47.9277234 48.5001417,46.2707966" id="Fill-66" fill="#AF6A3A"></path>
                </g>
            </g>
        </g>
    </g>
</svg>