<?xml version="1.0" encoding="UTF-8"?>
<svg width="31px" height="31px" viewBox="0 0 31 31" version="1.1" xmlns="http://www.w3.org/2000/svg" xmlns:xlink="http://www.w3.org/1999/xlink">
    <!-- Generator: Sketch 59.1 (86144) - https://sketch.com -->
    <title>Group 3</title>
    <desc>Created with Sketch.</desc>
    <g id="Welcome" stroke="none" stroke-width="1" fill="none" fill-rule="evenodd">
        <g id="Landing-desktop" transform="translate(-705.000000, -602.000000)" fill="#A8683A">
            <g id="Group-3" transform="translate(705.000000, 602.000000)">
                <path d="M30.6000136,16.000775 C30.6240407,15.8656333 30.637556,15.7289901 30.642061,15.5923468 C30.637556,15.7289901 30.6240407,15.8656333 30.6000136,16.000775 L30.6000136,16.000775 Z M17.5472915,29.7987406 L29.8011125,17.5458949 C29.828143,17.517365 29.8551735,17.4858319 29.8807023,17.457302 C29.8551735,17.4858319 29.828143,17.517365 29.8011125,17.5458949 L17.5472915,29.7987406 Z M14.6940734,30.5300073 C14.4868396,30.4699443 14.2781042,30.3813514 14.0768772,30.2672318 C13.8441147,30.1365948 13.6353793,29.9789295 13.455176,29.7987406 L1.201355,17.5458949 C0.995622959,17.3416808 0.825931564,17.1104384 0.693782514,16.8626786 C0.56013177,16.6134173 0.465525064,16.3476387 0.409962395,16.0683458 C0.373921745,15.8836522 0.354399726,15.6929523 0.354399726,15.5007508 C0.354399726,15.6929523 0.373921745,15.8836522 0.409962395,16.0683458 C0.465525064,16.3476387 0.56013177,16.6134173 0.693782514,16.8626786 C0.825931564,17.1104384 0.995622959,17.3416808 1.201355,17.5458949 L13.455176,29.7987406 C13.6353793,29.9789295 13.8441147,30.1365948 14.0768772,30.2672318 C14.2781042,30.3813514 14.4868396,30.4699443 14.6940734,30.5300073 C14.9583715,30.6065876 15.230178,30.6441269 15.5004829,30.6441269 C15.230178,30.6441269 14.9583715,30.6065876 14.6940734,30.5300073 L14.6940734,30.5300073 Z M0.636718152,14.2574473 C0.590165645,14.3565512 0.54811822,14.4586583 0.513579264,14.5622669 C0.54811822,14.4586583 0.590165645,14.3565512 0.636718152,14.2574473 L0.636718152,14.2574473 Z M1.201355,13.4541051 C1.11425677,13.5396948 1.03767038,13.6312909 0.965589084,13.72589 C1.03767038,13.6312909 1.11425677,13.5396948 1.201355,13.4541051 L1.201355,13.4541051 Z M8.74135934,24.0657302 C9.00565744,23.7218697 9.28497248,23.3825139 9.57029429,23.0566723 C12.8755222,19.2922257 17.8115896,16.4362315 23.4714734,15.0172439 C25.4116617,14.5307338 27.3893924,14.2289174 29.3491027,14.1238072 L29.4437094,14.1193025 L29.5007738,14.1943812 C29.6734686,14.4241221 29.7951058,14.6823928 29.8671871,14.9601841 L29.916743,15.1553887 L29.715516,15.1794139 C28.4390763,15.3385808 27.1536265,15.5788326 25.8982105,15.8926617 C19.3132834,17.5443933 13.6939453,21.1451683 10.4818224,25.770017 L10.3586835,25.9487043 L8.64825433,24.1888593 L8.74135934,24.0657302 Z M6.8987811,22.1572294 C6.97386579,22.070138 7.04744879,21.9815452 7.12403517,21.8944539 C10.4172496,18.1420199 15.3383,15.2965367 20.9801634,13.8805522 C23.3978904,13.2754178 25.8396444,12.9600872 28.2363476,12.9420683 L28.312934,12.9420683 L29.1253504,13.7784451 L28.7454218,13.8069751 C26.9584063,13.9361104 25.1563738,14.2274158 23.3843751,14.6718818 C17.6569152,16.1088884 12.656275,19.0039235 9.3029928,22.8224267 C9.04169809,23.12124 8.77890168,23.4395737 8.52361375,23.7684185 L8.39747147,23.9305885 L6.79366254,22.2803584 L6.8987811,22.1572294 Z M2.68202504,17.5909421 C3.45089225,17.7125696 4.21675606,17.8792444 4.95709108,18.0864616 C6.16895794,18.4243158 7.355296,18.8777912 8.48456971,19.4318721 L8.72183732,19.5474933 L8.52661713,19.7231775 C7.86286849,20.3223056 7.25768591,20.9334464 6.72458463,21.5415839 C6.67953382,21.5926374 6.63748639,21.6421894 6.59393727,21.6932429 L6.4197408,21.8959554 L2.15493054,17.5053524 L2.68202504,17.5909421 Z M1.45063617,16.2215064 C1.72844951,16.2109954 1.95520527,16.2064907 2.16243901,16.2064907 C4.01102402,16.2064907 5.8656158,16.4632599 7.67515677,16.9677888 C8.56415948,17.2155486 9.45766726,17.5323807 10.3301513,17.9092759 L10.6124698,18.0309034 L10.3646903,18.215597 C9.95622959,18.5174134 9.5432638,18.8477597 9.10026415,19.2216517 L9.01016252,19.298232 L8.90504396,19.2441753 C7.67665847,18.6195205 6.38069676,18.1149915 5.05169779,17.7441027 C3.99750877,17.4497941 2.91328588,17.2380722 1.82906299,17.1134415 L1.76599185,17.1059336 L1.70292072,17.0398644 C1.5392361,16.8791959 1.40408366,16.688496 1.2974634,16.4782756 L1.17432452,16.2320174 L1.45063617,16.2215064 Z M1.21637194,15.4331799 C2.42974049,15.2034391 3.66413276,15.0878179 4.88200639,15.0878179 C6.72908971,15.0878179 8.58518319,15.3430855 10.3962259,15.8476144 C11.0614762,16.0338096 11.7357367,16.2605473 12.3994853,16.5218213 L12.7358647,16.6524582 L12.4265158,16.8386534 C11.9219467,17.143473 11.4684352,17.4377815 11.0359474,17.7365948 L10.9518525,17.7936546 L10.8587475,17.7531121 C9.86462627,17.2981351 8.82695588,16.9197384 7.77126517,16.6254299 C5.64787021,16.0323081 3.45689902,15.7815452 1.26292445,15.8791475 L1.09473475,15.8866554 L1.07671442,15.7199806 C1.07521273,15.6944539 1.07371103,15.6704287 1.07220934,15.6449019 L1.06319918,15.4617099 L1.21637194,15.4331799 Z M4.78289461,14.2724631 C7.53399756,13.8730443 10.3737004,14.057738 13.0917661,14.8145314 C13.5858234,14.9526762 14.082884,15.1148462 14.6099785,15.3070477 L14.9989172,15.4496973 L14.6264972,15.6328893 C14.1594704,15.8626302 13.690942,16.1103899 13.1938813,16.3896827 L13.1172949,16.4332284 L13.0377052,16.3986922 C12.1967567,16.0428191 11.3392895,15.7425042 10.4908326,15.5052555 C8.37794945,14.9166384 6.21100536,14.6628724 4.04856636,14.7514652 L4.04706467,14.7424558 C2.48079808,14.8085251 1.1307754,14.9857108 1.1307754,14.9857108 C2.36666936,14.6208283 3.6791497,14.4031 4.78289461,14.2724631 L4.78289461,14.2724631 Z M23.0194635,12.9000242 L22.8107281,12.9375636 C22.1304608,13.0651974 21.4712173,13.2078469 20.8510178,13.3640107 C19.0805208,13.8084766 17.3595798,14.3970937 15.7317438,15.1178494 L15.6611642,15.1478808 L15.5905845,15.1193509 C14.8021953,14.7920078 14.0108027,14.5172197 13.2359287,14.300993 C11.5390148,13.8279971 9.7850365,13.5712279 8.02505142,13.5381933 L7.79228889,13.5336885 L7.85686172,13.3114556 C8.83146096,9.91639622 11.974506,7.54691209 15.5004829,7.54691209 C18.7906939,7.54691209 21.7820679,9.61908452 22.9443789,12.7003148 L23.0194635,12.9000242 Z M1.70442241,13.9571325 L13.9582434,1.34841366 C14.3697075,0.93698232 14.9178257,0.710244611 15.5004829,0.710244611 C16.0846418,0.710244611 16.6312583,0.93698232 17.0442241,1.34841366 L27.7978531,12.4135142 L27.3969008,12.4270283 C26.1895391,12.4690724 24.9431332,12.5906999 23.693724,12.7874062 L23.5495614,12.8099298 L23.4985039,12.6702834 C22.3001522,9.28723662 19.0850259,7.01385323 15.5004829,7.01385323 C11.6171029,7.01385323 8.23528854,9.64310971 7.27720793,13.4075563 L7.24266897,13.5381933 L7.10901823,13.5411964 C5.28446032,13.5892468 3.47792273,13.8790506 1.74196475,14.4061032 L1.18633807,14.5757811 L1.55275134,14.1238072 C1.59930385,14.0667474 1.65036144,14.0111891 1.70442241,13.9571325 L1.70442241,13.9571325 Z M28.4105441,17.1149431 C21.4772241,18.853766 15.5170016,22.8479535 12.4655598,27.7971422 L12.346926,27.9923468 L10.6034596,26.1994672 L10.6845511,26.0793412 C13.8305995,21.4755147 19.4063884,17.8882538 25.9853087,16.2380237 C27.2181993,15.9286994 28.4766186,15.6914507 29.7245262,15.535287 L29.9467768,15.5067571 L29.9227497,15.7304916 C29.8807023,16.1269072 29.7305329,16.5053039 29.4872585,16.8221361 L29.4467128,16.8746912 L29.3836417,16.8882054 C29.014225,16.9692904 28.7048761,17.0413659 28.4105441,17.1149431 L28.4105441,17.1149431 Z M26.0994374,20.3343182 L17.0442241,29.6515863 C16.6312583,30.0630177 16.0711266,30.2882538 15.4989812,30.2882538 C15.3112695,30.2882538 15.1220561,30.2642286 14.9358461,30.2131751 L14.7181005,30.1546137 L14.8262224,29.9564059 C15.4284016,28.8497457 16.1957671,27.7611044 17.1102986,26.722015 C19.1886428,24.3525309 21.9893016,22.2893679 25.204428,20.7592637 L26.0994374,20.3343182 Z M16.8414954,26.4862679 C15.9029369,27.5568903 15.1130459,28.6800678 14.4928464,29.8227658 L14.3982397,29.9999516 L14.2345551,29.8828288 C14.1264331,29.8062485 14.0378332,29.7311698 13.9582434,29.6515863 L12.5962072,28.249116 L12.6667868,28.1319932 C15.6191167,23.2158392 21.5042546,19.2351659 28.4120458,17.4813272 L29.0202318,17.3281666 L26.70462,19.7111649 L26.6700811,19.7246791 C22.7116163,21.3328651 19.3132834,23.6708162 16.8414954,26.4862679 L16.8414954,26.4862679 Z M30.9378947,14.8550739 C30.8928439,14.6328409 30.8207626,14.4091063 30.7246542,14.1898765 C30.6045187,13.91659 30.4513459,13.6658271 30.2726444,13.4465972 C30.2020648,13.3610075 30.1299835,13.2799225 30.0533971,13.2033422 L17.7980744,0.950496488 C17.1853833,0.336352628 16.3684619,0 15.5004829,0 C14.6325039,0 13.8155825,0.336352628 13.2043932,0.950496488 L0.949070452,13.2033422 C0.337881095,13.8159845 0,14.6313393 0,15.5007508 C0,16.3686607 0.337881095,17.1840155 0.949070452,17.7966578 L13.2043932,30.0495035 C13.4071218,30.252216 13.6413861,30.4294018 13.9011791,30.5780576 C14.1264331,30.7041899 14.3621991,30.8032938 14.5964633,30.8708646 C14.892297,30.9564543 15.1956391,31 15.5004829,31 C16.3684619,31 17.1853833,30.6636474 17.7980744,30.0495035 L30.0533971,17.7966578 C30.1840444,17.6645193 30.3056816,17.5188666 30.4213121,17.3506902 C30.6015153,17.0924195 30.7426745,16.8086219 30.8402846,16.5083071 C30.9348913,16.2170017 30.9889523,15.9121821 30.9979625,15.6028578 C31.0069726,15.3460886 30.9859489,15.0938242 30.9378947,14.8550739 L30.9378947,14.8550739 Z" id="Fill-1"></path>
            </g>
        </g>
    </g>
</svg>