<?xml version="1.0" encoding="UTF-8"?>
<svg width="217px" height="70px" viewBox="0 0 217 70" version="1.1" xmlns="http://www.w3.org/2000/svg" xmlns:xlink="http://www.w3.org/1999/xlink">
    <!-- Generator: Sketch 59.1 (86144) - https://sketch.com -->
    <title>Group 59</title>
    <desc>Created with Sketch.</desc>
    <defs>
        <polygon id="path-1" points="0 70 216.481481 70 216.481481 0 0 0"></polygon>
    </defs>
    <g id="Welcome" stroke="none" stroke-width="1" fill="none" fill-rule="evenodd">
        <g id="Landing-desktop" transform="translate(-148.000000, -2057.000000)">
            <g id="Group-59" transform="translate(148.000000, 2057.000000)">
                <path d="M97.2222222,18.3222921 L97.9450517,18.3222921 L98.5874552,19.9668763 C99.2298586,21.5948288 100.273387,22.7854647 101.558194,22.7854647 C102.602728,22.7854647 103.325557,22.0810622 103.325557,21.1408805 C103.325557,19.7633823 101.895984,19.0110412 100.434239,18.2440252 C98.9724951,17.5073375 97.5429213,16.521174 97.5429213,14.7200559 C97.5429213,13.2329839 99.0690064,11.7449336 101.558194,11.7449336 C102.474046,11.7449336 103.164705,11.9484277 103.614086,12.1372467 C103.887535,12.2458421 104.112728,12.3877009 104.28866,12.5276031 C104.369086,12.4493361 104.433427,12.3710692 104.497768,12.2771488 C104.610364,12.1059399 104.721956,11.9024458 104.770211,11.6666667 L105.252768,11.6666667 L105.252768,15.5809923 L104.529938,15.5809923 L104.208234,14.641789 C103.646256,12.9981831 102.939512,12.2928022 101.719046,12.2928022 C100.820285,12.2928022 100.273387,12.8259958 100.273387,13.6243187 C100.273387,14.830608 101.783387,15.5663173 103.293387,16.2863732 C104.786296,17.0064291 106.296296,18.0405311 106.296296,19.8886094 C106.296296,21.7044025 104.594279,23.3333333 101.63862,23.3333333 C100.289472,23.3333333 99.2137734,22.9419986 98.4426882,22.5496855 C97.9933074,22.3148847 97.5911769,22.0644305 97.2222222,21.7670161 L97.2222222,18.3222921 Z" id="Fill-1" fill="#FFF1F0"></path>
                <path d="M116.129047,19.2247448 L114.757311,15.8563593 L114.662572,15.8563593 L113.338205,19.2247448 L116.129047,19.2247448 Z M110.185185,22.8395225 C110.327293,22.7912707 110.469401,22.70914 110.642102,22.6259826 C110.910528,22.479174 111.288495,22.2327819 111.68324,21.8549806 L115.624761,11.6666667 L116.097467,11.6666667 L120.353797,22.1013728 C120.716962,22.3477649 121.06335,22.5438519 121.363356,22.6598616 C121.536056,22.7419923 121.694941,22.7912707 121.851852,22.8395225 L121.851852,23.3333333 L115.861608,23.3333333 L115.861608,22.8395225 C116.002729,22.7912707 116.144837,22.7419923 116.302734,22.6598616 C116.585963,22.5438519 116.917549,22.3477649 117.279726,22.1013728 L116.380696,19.8828171 L113.102345,19.8828171 L112.345423,21.8549806 C112.723391,22.2327819 113.086556,22.479174 113.353995,22.6259826 C113.511892,22.70914 113.66979,22.7912707 113.810911,22.8395225 L113.810911,23.3333333 L110.185185,23.3333333 L110.185185,22.8395225 Z" id="Fill-3" fill="#FFF1F0"></path>
                <path d="M130.508149,8.12715784 C130.918498,8.31718892 131.296966,8.49138408 131.674404,8.49138408 C132.051843,8.49138408 132.33158,8.30135299 132.380945,7.77777778 L132.907509,7.77777778 C132.907509,9.1881647 132.430311,9.83842731 131.509853,9.83842731 C131.000774,9.83842731 130.524604,9.66423215 130.113227,9.47321132 C129.702878,9.30000591 129.307955,9.12581076 128.963427,9.12581076 C128.585988,9.12581076 128.306251,9.33167776 128.256886,9.83842731 L127.731351,9.83842731 C127.731351,8.45971223 128.191065,7.77777778 129.127978,7.77777778 C129.637057,7.77777778 130.0978,7.95296268 130.508149,8.12715784 L130.508149,8.12715784 Z M124.444444,21.5609696 C124.610024,21.4986156 124.773546,21.419436 124.954553,21.3234307 C125.266171,21.1492356 125.628183,20.9285224 126.006651,20.6108142 L126.006651,12.1356259 C125.628183,11.8980871 125.266171,11.7238919 124.954553,11.5972045 C124.773546,11.5328711 124.610024,11.4695274 124.444444,11.4220196 L124.444444,10.9479317 L128.553077,10.9479317 L133.810482,17.6801786 L133.892758,17.6801786 L133.892758,12.3731648 C133.51429,12.0564463 133.153307,11.8337537 132.841688,11.6595585 C132.660682,11.5655327 132.496131,11.4863531 132.33158,11.4220196 L132.33158,10.9479317 L136.111111,10.9479317 L136.111111,11.4220196 C135.94656,11.4863531 135.782009,11.5655327 135.601003,11.6595585 C135.289385,11.8337537 134.927372,12.0564463 134.549933,12.3731648 L134.549933,22.037037 L133.645931,22.037037 L126.745073,13.2441406 L126.662798,13.2441406 L126.662798,20.6108142 C127.041265,20.9285224 127.402249,21.1492356 127.714896,21.3234307 C127.894873,21.419436 128.059424,21.4986156 128.223975,21.5609696 L128.223975,22.037037 L124.444444,22.037037 L124.444444,21.5609696 Z" id="Fill-5" fill="#FFF1F0"></path>
                <path d="M140,11.6666667 L145.715706,11.6666667 L145.715706,12.1515967 L145.277544,12.3307879 C145.010923,12.4603726 144.666863,12.6385514 144.306139,12.8815226 L144.306139,18.6348779 C144.306139,21.5667303 145.324595,22.6854102 146.890018,22.6854102 C148.393687,22.6854102 149.552316,21.4705542 149.552316,19.0388175 L149.552316,13.1244938 C149.192573,12.8005322 148.847533,12.5737591 148.550524,12.3955802 C148.378004,12.2983918 148.221167,12.2174014 148.065311,12.1515967 L148.065311,11.6666667 L151.666667,11.6666667 L151.666667,12.1515967 C151.50983,12.2174014 151.353974,12.2983918 151.181454,12.3955802 C150.883465,12.5737591 150.539405,12.8005322 150.178681,13.1244938 L150.178681,19.0388175 C150.178681,21.8917043 148.784798,23.3333333 146.263653,23.3333333 C143.022041,23.3333333 141.408587,21.6649312 141.408587,18.6348779 L141.408587,12.8815226 C141.048843,12.6385514 140.704784,12.4603726 140.438162,12.3307879 L140,12.1515967 L140,11.6666667 Z" id="Fill-7" fill="#FFF1F0"></path>
                <path d="M159.435417,22.6658634 C161.324668,22.6658634 162.639019,21.3330061 162.639019,17.4989587 C162.639019,13.6649113 161.324668,12.332054 159.517692,12.332054 L158.778241,12.332054 L158.778241,22.6658634 L159.435417,22.6658634 Z M154.259259,22.8324705 C154.407355,22.7824884 154.555451,22.7325062 154.720002,22.6492027 C155.015165,22.5325777 155.360723,22.3336903 155.738161,22.0827383 L155.738161,12.9162204 C155.360723,12.6652684 154.999739,12.4830418 154.720002,12.349756 L154.259259,12.1654469 L154.259259,11.6666667 L159.353141,11.6666667 C163.625297,11.6666667 165.925926,13.9825062 165.925926,17.4989587 C165.925926,21.0164525 163.625297,23.3333333 159.353141,23.3333333 L154.259259,23.3333333 L154.259259,22.8324705 Z" id="Fill-9" fill="#FFF1F0"></path>
                <path d="M175.648148,22.7807795 C176.896899,22.7807795 178.196053,21.5200507 178.196053,17.4995075 C178.196053,13.4799493 176.896899,12.2172506 175.648148,12.2172506 C174.399397,12.2172506 173.101272,13.4799493 173.101272,17.4995075 C173.101272,21.5200507 174.399397,22.7807795 175.648148,22.7807795 M175.648148,11.6666667 C178.934606,11.6666667 181.481481,14.1093288 181.481481,17.4995075 C181.481481,20.8887013 178.934606,23.3333333 175.648148,23.3333333 C172.361691,23.3333333 169.814815,20.8887013 169.814815,17.4995075 C169.814815,14.1093288 172.361691,11.6666667 175.648148,11.6666667" id="Fill-11" fill="#FFF1F0"></path>
                <path d="M102.428689,28.5967855 C103.276881,28.5967855 103.99007,28.8315863 104.481668,29.0654088 C104.763778,29.2072676 105.031922,29.3638015 105.254444,29.5359888 C105.328929,29.4733753 105.388516,29.3951083 105.463001,29.2855346 C105.582176,29.1133473 105.730214,28.8785465 105.849389,28.5185185 L106.296296,28.5185185 L106.296296,33.2947589 L105.626867,33.2947589 L105.105475,31.7284416 C104.585015,30.1631027 103.856929,29.1446541 102.725696,29.1446541 C101.461321,29.1446541 100.197878,30.4595388 100.197878,34.3904962 C100.197878,38.3204752 101.461321,39.6363382 102.725696,39.6363382 C103.916517,39.6363382 104.659499,38.540601 105.180891,36.9742837 L105.626867,35.6437456 L106.296296,35.6437456 L106.296296,38.9788959 C105.968565,39.2146751 105.61197,39.4181691 105.209754,39.5893781 C104.51053,39.8867925 103.588785,40.1851852 102.503173,40.1851852 C99.602002,40.1851852 97.2222222,37.6786862 97.2222222,34.3904962 C97.2222222,31.0230608 99.5284485,28.5967855 102.428689,28.5967855" id="Fill-13" fill="#FFF1F0"></path>
                <path d="M117.425343,36.0765967 L116.053607,32.7082111 L115.958868,32.7082111 L114.634501,36.0765967 L117.425343,36.0765967 Z M111.481481,39.6913743 C111.623589,39.6431225 111.765697,39.5609918 111.938398,39.4778345 C112.206824,39.3310259 112.584792,39.0846337 112.979536,38.7068325 L116.921057,28.5185185 L117.393764,28.5185185 L121.650094,38.9532246 C122.013258,39.1996167 122.359646,39.3957038 122.659652,39.5117134 C122.832353,39.5938441 122.991237,39.6431225 123.148148,39.6913743 L123.148148,40.1851852 L117.157904,40.1851852 L117.157904,39.6913743 C117.299025,39.6431225 117.441133,39.5938441 117.599031,39.5117134 C117.88226,39.3957038 118.213845,39.1996167 118.576023,38.9532246 L117.676993,36.7346689 L114.398642,36.7346689 L113.641719,38.7068325 C114.019687,39.0846337 114.382852,39.3310259 114.650291,39.4778345 C114.808189,39.5609918 114.966086,39.6431225 115.107208,39.6913743 L115.107208,40.1851852 L111.481481,40.1851852 L111.481481,39.6913743 Z" id="Fill-15" fill="#FFF1F0"></path>
                <path d="M125.740741,39.6853637 C125.899419,39.6197621 126.058098,39.5354172 126.232645,39.4354529 C126.533142,39.2521851 126.881243,39.018935 127.246204,38.6857207 L127.246204,29.7691135 C126.881243,29.5181615 126.533142,29.3359349 126.263389,29.2026492 L125.82008,29.01834 L125.82008,28.5185185 L130.335479,28.5185185 L132.94971,35.5191433 L133.029049,35.5191433 L135.595676,28.5185185 L140,28.5185185 L140,29.01834 L139.556692,29.2026492 C139.28793,29.3359349 138.938837,29.5181615 138.574867,29.7691135 L138.574867,38.9356315 C138.938837,39.1865835 139.28793,39.3854708 139.556692,39.5020958 C139.71537,39.5853994 139.858181,39.6353815 140,39.6853637 L140,40.1851852 L134.375834,40.1851852 L134.375834,39.6853637 C134.486909,39.6353815 134.613852,39.5853994 134.740795,39.5020958 C134.961953,39.3854708 135.263443,39.2022029 135.64328,38.9356315 L135.64328,30.6844117 L135.56394,30.6844117 L132.078961,40.1851852 L131.524577,40.1851852 L127.959266,30.6844117 L127.879927,30.6844117 L127.879927,38.6857207 C128.243896,39.018935 128.592989,39.2521851 128.893487,39.4354529 C129.068033,39.5354172 129.226712,39.6197621 129.385391,39.6853637 L129.385391,40.1851852 L125.740741,40.1851852 L125.740741,39.6853637 Z" id="Fill-17" fill="#FFF1F0"></path>
                <path d="M149.033816,35.0182805 C150.255636,35.0182805 151.04368,34.1842034 151.04368,32.1016138 C151.04368,30.017983 150.255636,29.1839059 149.033816,29.1839059 L148.310185,29.1839059 L148.310185,35.0182805 L149.033816,35.0182805 Z M143.888889,39.6843224 C144.033816,39.6353815 144.177738,39.5853994 144.338768,39.5020958 C144.628623,39.3844295 144.965781,39.1855422 145.336151,38.9356315 L145.336151,29.7680722 C144.965781,29.5181615 144.61252,29.3348936 144.338768,29.2016079 L143.888889,29.0172987 L143.888889,28.5185185 L149.515902,28.5185185 C152.732488,28.5185185 154.259259,30.1012866 154.259259,32.1016138 C154.259259,34.1008998 152.732488,35.6857505 149.515902,35.6857505 L148.310185,35.6857505 L148.310185,38.9356315 C148.680556,39.1855422 149.098229,39.3844295 149.468599,39.5020958 C149.676932,39.5853994 149.870169,39.6353815 150.079509,39.6843224 L150.079509,40.1851852 L143.888889,40.1851852 L143.888889,39.6843224 Z" id="Fill-19" fill="#FFF1F0"></path>
                <path d="M163.981481,39.6326314 C165.230232,39.6326314 166.529386,38.3719025 166.529386,34.3513594 C166.529386,30.3318012 165.230232,29.0691024 163.981481,29.0691024 C162.732731,29.0691024 161.434606,30.3318012 161.434606,34.3513594 C161.434606,38.3719025 162.732731,39.6326314 163.981481,39.6326314 M163.981481,28.5185185 C167.267939,28.5185185 169.814815,30.9611807 169.814815,34.3513594 C169.814815,37.7405531 167.267939,40.1851852 163.981481,40.1851852 C160.695024,40.1851852 158.148148,37.7405531 158.148148,34.3513594 C158.148148,30.9611807 160.695024,28.5185185 163.981481,28.5185185" id="Fill-21" fill="#FFF1F0"></path>
                <path d="M173.703704,35.174144 L174.426533,35.174144 L175.068937,36.8187282 C175.71134,38.4466806 176.754869,39.6373166 178.039676,39.6373166 C179.084209,39.6373166 179.807039,38.932914 179.807039,37.9927324 C179.807039,36.6152341 178.377465,35.8628931 176.915721,35.095877 C175.453977,34.3591894 174.024403,33.3730259 174.024403,31.5719078 C174.024403,30.0848358 175.550488,28.5967855 178.039676,28.5967855 C178.955528,28.5967855 179.646187,28.8002795 180.095568,28.9890985 C180.369016,29.0976939 180.594209,29.2395528 180.770141,29.3794549 C180.850567,29.301188 180.914908,29.222921 180.979249,29.1290007 C181.091846,28.9577918 181.203437,28.7542977 181.251693,28.5185185 L181.734249,28.5185185 L181.734249,32.4328442 L181.01142,32.4328442 L180.689715,31.4936408 C180.127738,29.8500349 179.420994,29.1446541 178.200528,29.1446541 C177.301766,29.1446541 176.754869,29.6778477 176.754869,30.4761705 C176.754869,31.6824598 178.264869,32.4181691 179.774868,33.138225 C181.267778,33.8582809 182.777778,34.8923829 182.777778,36.7404612 C182.777778,38.5562544 181.075761,40.1851852 178.120102,40.1851852 C176.770954,40.1851852 175.695255,39.7938505 174.92417,39.4015374 C174.474789,39.1667365 174.072658,38.9162823 173.703704,38.6188679 L173.703704,35.174144 Z" id="Fill-23" fill="#FFF1F0"></path>
                <mask id="mask-2" fill="white">
                    <use xlink:href="#path-1"></use>
                </mask>
                <g id="Clip-26"></g>
                <polygon id="Fill-25" fill="#AF6A3A" mask="url(#mask-2)" points="80.3703704 51.8518519 215.185185 51.8518519 215.185185 50.5555556 80.3703704 50.5555556"></polygon>
                <path d="M0.990761929,69.0140845 L215.49072,69.0140845 L215.49072,0.985915493 L0.990761929,0.985915493 L0.990761929,69.0140845 Z M0,70 L216.481481,70 L216.481481,0 L0,0 L0,70 Z" id="Fill-27" fill="#AF6A3A" mask="url(#mask-2)"></path>
                <path d="M0.990761929,69.0140845 L215.49072,69.0140845 L215.49072,0.985915493 L0.990761929,0.985915493 L0.990761929,69.0140845 Z M0,70 L216.481481,70 L216.481481,0 L0,0 L0,70 Z" id="Fill-27" fill="#AF6A3A" mask="url(#mask-2)"></path>
                <polygon id="Fill-28" fill="#AF6A3A" mask="url(#mask-2)" points="59.6296296 70 60.9259259 70 60.9259259 1.2962963 59.6296296 1.2962963"></polygon>
                <polygon id="Fill-29" fill="#AF6A3A" mask="url(#mask-2)" points="80.3703704 70 81.6666667 70 81.6666667 1.2962963 80.3703704 1.2962963"></polygon>
                <path d="M67.9805793,61.4508619 C67.9805793,62.122967 68.2451202,62.5626357 68.6860217,62.5626357 C70.0225043,62.5626357 69.3244103,59.622176 71.1899747,59.6296296 C72.0414657,59.6296296 72.5925926,60.3988308 72.5925926,61.5180724 C72.5925926,62.2797915 72.2692648,63.0256415 71.8072368,63.5185185 L71.3002001,63.2496765 C71.7548798,62.7642673 72.0194207,62.09963 72.0194207,61.5106046 C72.0194207,60.7572868 71.7190565,60.2868132 71.2193682,60.2868132 C69.8461438,60.2793454 70.5727127,63.2207386 68.7291933,63.2207386 C67.9217925,63.2207386 67.4074074,62.4954252 67.4074074,61.4135227 C67.4074074,60.8095616 67.5984647,60.1887979 67.8850507,59.756597 L68.4058656,60.0105034 C68.1055014,60.4809769 67.9805793,61.0335967 67.9805793,61.4508619" id="Fill-30" fill="#FFF1F0" mask="url(#mask-2)"></path>
                <polygon id="Fill-31" fill="#FFF1F0" mask="url(#mask-2)" points="67.4074074 54.4444444 67.9558494 54.4444444 67.9558494 56.1027014 72.5925926 56.1027014 72.5925926 56.6823216 67.9558494 56.6823216 67.9558494 58.3333333 67.4074074 58.3333333"></polygon>
                <path d="M70.7184404,50.7051194 L68.0521973,51.866009 L70.7184404,53.0122848 L70.7184404,50.7051194 Z M71.2668824,50.4712974 L71.2668824,53.2543271 L72.5925926,53.8233548 L72.5925926,54.4444444 L67.4074074,52.1509796 L67.4074074,51.5454172 L72.5925926,49.2592593 L72.5925926,49.8940494 L71.2668824,50.4712974 Z" id="Fill-32" fill="#FFF1F0" mask="url(#mask-2)"></path>
                <path d="M73.2407407,46.8125 C73.5414815,46.8125 73.7696296,47.0302778 73.7696296,47.3102778 C73.7696296,47.6006481 73.5414815,47.8171296 73.2407407,47.8171296 C72.94,47.8171296 72.7118519,47.6006481 72.7118519,47.3102778 C72.7118519,47.0302778 72.94,46.8125 73.2407407,46.8125" id="Fill-33" fill="#FFF1F0" mask="url(#mask-2)"></path>
                <polygon id="Fill-34" fill="#FFF1F0" mask="url(#mask-2)" points="67.4074074 38.8888889 67.9558494 38.8888889 67.9558494 42.0782587 69.8151788 42.0782587 69.8151788 39.2211605 70.3562093 39.2211605 70.3562093 42.0782587 72.5925926 42.0782587 72.5925926 42.7777778 67.4074074 42.7777778"></polygon>
                <polygon id="Fill-35" fill="#FFF1F0" mask="url(#mask-2)" points="67.4074074 33.8073543 67.9558494 33.8073543 67.9558494 36.9547431 69.6965967 36.9547431 69.6965967 34.1422253 70.2376273 34.1422253 70.2376273 36.9547431 72.0441506 36.9547431 72.0441506 33.7037037 72.5925926 33.7037037 72.5925926 37.5925926 67.4074074 37.5925926"></polygon>
                <polygon id="Fill-36" fill="#FFF1F0" mask="url(#mask-2)" points="66.1111111 27.2222222 73.8888889 29.3517911 73.8888889 29.8148148 66.1111111 27.6920552"></polygon>
                <path d="M70.7184404,20.8903046 L68.0521973,22.0511942 L70.7184404,23.19747 L70.7184404,20.8903046 Z M71.2668824,20.6564826 L71.2668824,23.4395123 L72.5925926,24.00854 L72.5925926,24.6296296 L67.4074074,22.3361648 L67.4074074,21.7306024 L72.5925926,19.4444444 L72.5925926,20.0792346 L71.2668824,20.6564826 Z" id="Fill-37" fill="#FFF1F0" mask="url(#mask-2)"></path>
                <path d="M70.3997512,16.2639416 C70.3997512,15.3639163 69.9773027,14.8545516 69.1629775,14.8545516 C68.3699601,14.8545516 67.9549229,15.3639163 67.9549229,16.2639416 L67.9549229,17.5812031 L70.3997512,17.5812031 L70.3997512,16.2639416 Z M72.5925926,14.9041593 L70.9333704,15.9459209 C70.9398553,16.0442504 70.9481931,16.1505526 70.9481931,16.2639416 L70.9481931,17.5812031 L72.5925926,17.5812031 L72.5925926,18.1481481 L67.4074074,18.1481481 L67.4074074,16.2639416 C67.4074074,15.0246351 68.0447859,14.308867 69.1481548,14.308867 C69.9995368,14.308867 70.5850356,14.7128153 70.8221997,15.4285835 L72.5925926,14.2592593 L72.5925926,14.9041593 Z" id="Fill-38" fill="#FFF1F0" mask="url(#mask-2)"></path>
                <path d="M70.0552007,8.38171638 L70.0552007,7.79432404 L71.9237442,7.79432404 C72.3285493,8.36413597 72.5925926,9.16662973 72.5925926,9.9443041 C72.5925926,11.6227157 71.4453382,12.962963 69.99632,12.962963 C68.5473017,12.962963 67.4074074,11.6144425 67.4074074,9.91121157 C67.4074074,9.10871781 67.6788108,8.33104345 68.1130563,7.77777778 L68.5399416,8.15834183 C68.1645769,8.62887618 67.9437742,9.26590731 67.9437742,9.91121157 C67.9437742,11.2338785 68.8564256,12.2918052 69.99632,12.2918052 C71.1435744,12.2918052 72.0562258,11.2256053 72.0562258,9.90293844 C72.0562258,9.38173115 71.8943038,8.82846548 71.6219804,8.38171638 L70.0552007,8.38171638 Z" id="Fill-39" fill="#FFF1F0" mask="url(#mask-2)"></path>
                <polygon id="Fill-40" fill="#FFF1F0" mask="url(#mask-2)" points="97.4555556 63.5185185 98.2851852 63.5185185 98.2851852 58.3333333 97.4555556 58.3333333"></polygon>
                <polygon id="Fill-41" fill="#FFF1F0" mask="url(#mask-2)" points="100.554601 58.3333333 104.295867 62.547628 104.295867 58.3333333 105 58.3333333 105 63.5185185 104.269127 63.5185185 100.527861 59.3116352 100.527861 63.5185185 99.8148148 63.5185185 99.8148148 58.3333333"></polygon>
                <polygon id="Fill-42" fill="#FFF1F0" mask="url(#mask-2)" points="109.61432 58.3333333 111.489267 62.0964604 113.356886 58.3333333 114.074074 58.3333333 114.074074 63.5185185 113.531832 63.5185185 113.525421 59.2069495 111.656886 62.9700766 111.306077 62.9700766 109.445786 59.2069495 109.445786 63.5185185 108.888889 63.5185185 108.888889 58.3333333"></polygon>
                <path d="M117.239161,60.9217866 C117.239161,62.0614787 118.159398,62.9813271 119.262799,62.9813271 C120.366199,62.9813271 121.272279,62.0614787 121.272279,60.9217866 C121.272279,59.7820945 120.366199,58.8769637 119.262799,58.8769637 C118.159398,58.8769637 117.239161,59.7820945 117.239161,60.9217866 M121.851852,60.9217866 C121.851852,62.3705478 120.705979,63.5185185 119.262799,63.5185185 C117.81254,63.5185185 116.666667,62.3705478 116.666667,60.9217866 C116.666667,59.4730254 117.81254,58.3333333 119.262799,58.3333333 C120.705979,58.3333333 121.851852,59.4730254 121.851852,60.9217866" id="Fill-43" fill="#FFF1F0" mask="url(#mask-2)"></path>
                <path d="M127.762423,62.036243 C127.762423,61.4590819 127.298117,61.1181585 126.494613,61.1255699 L125.008307,61.1255699 L125.008307,62.9700766 L126.494613,62.9700766 C127.298117,62.9774879 127.762423,62.6365646 127.762423,62.036243 M127.543926,59.7183346 C127.543926,59.1847154 127.157151,58.8817753 126.494613,58.8817753 L125.008307,58.8817753 L125.008307,60.5780544 L126.494613,60.5780544 C127.157151,60.5780544 127.543926,60.2667765 127.543926,59.7183346 M128.121885,59.629398 C128.121885,60.237131 127.776519,60.6734759 127.206489,60.7994693 C127.917485,60.91064 128.333333,61.3997909 128.333333,62.1103567 C128.333333,62.9923107 127.670795,63.5185185 126.550999,63.5185185 L124.444444,63.5185185 L124.444444,58.3333333 L126.522806,58.3333333 C127.515733,58.3333333 128.121885,58.8141465 128.121885,59.629398" id="Fill-44" fill="#FFF1F0" mask="url(#mask-2)"></path>
                <polygon id="Fill-45" fill="#FFF1F0" mask="url(#mask-2)" points="131.159259 63.5185185 131.988889 63.5185185 131.988889 58.3333333 131.159259 58.3333333"></polygon>
                <polygon id="Fill-46" fill="#FFF1F0" mask="url(#mask-2)" points="135.350924 58.3333333 135.350924 62.9700766 137.407407 62.9700766 137.407407 63.5185185 134.814815 63.5185185 134.814815 58.3333333"></polygon>
                <polygon id="Fill-47" fill="#FFF1F0" mask="url(#mask-2)" points="140.233333 63.5185185 141.062963 63.5185185 141.062963 58.3333333 140.233333 58.3333333"></polygon>
                <path d="M146.331918,61.644958 L145.171028,58.9773118 L144.023839,61.644958 L146.331918,61.644958 Z M146.56574,62.1925714 L143.78271,62.1925714 L143.212769,63.5185185 L142.592593,63.5185185 L144.886057,58.3333333 L145.49162,58.3333333 L147.777778,63.5185185 L147.142074,63.5185185 L146.56574,62.1925714 Z" id="Fill-48" fill="#FFF1F0" mask="url(#mask-2)"></path>
                <path d="M152.254577,61.3252853 C153.153716,61.3252853 153.663967,60.9036878 153.663967,60.0882906 C153.663967,59.296058 153.153716,58.8809467 152.254577,58.8809467 L150.937315,58.8809467 L150.937315,61.3252853 L152.254577,61.3252853 Z M153.614359,63.5185185 L152.572598,61.8589998 C152.474268,61.8664125 152.367966,61.8738252 152.254577,61.8738252 L150.937315,61.8738252 L150.937315,63.5185185 L150.37037,63.5185185 L150.37037,58.3333333 L152.254577,58.3333333 C153.493883,58.3333333 154.209652,58.9698991 154.209652,60.0734652 C154.209652,60.9249993 153.805703,61.5106028 153.089935,61.7478093 L154.259259,63.5185185 L153.614359,63.5185185 Z" id="Fill-49" fill="#FFF1F0" mask="url(#mask-2)"></path>
                <polygon id="Fill-50" fill="#FFF1F0" mask="url(#mask-2)" points="157.085185 63.5185185 157.914815 63.5185185 157.914815 58.3333333 157.085185 58.3333333"></polygon>
                <path d="M163.183769,61.644958 L162.02288,58.9773118 L160.875691,61.644958 L163.183769,61.644958 Z M163.417591,62.1925714 L160.634562,62.1925714 L160.064621,63.5185185 L159.444444,63.5185185 L161.737909,58.3333333 L162.343472,58.3333333 L164.62963,63.5185185 L163.993926,63.5185185 L163.417591,62.1925714 Z" id="Fill-51" fill="#FFF1F0" mask="url(#mask-2)"></path>
                <path d="M172.994861,61.3252853 C173.895091,61.3252853 174.404572,60.9036878 174.404572,60.0882906 C174.404572,59.296058 173.895091,58.8809467 172.994861,58.8809467 L171.677299,58.8809467 L171.677299,61.3252853 L172.994861,61.3252853 Z M174.354953,63.5185185 L173.31384,61.8589998 C173.214602,61.8664125 173.108276,61.8738252 172.994861,61.8738252 L171.677299,61.8738252 L171.677299,63.5185185 L171.111111,63.5185185 L171.111111,58.3333333 L172.994861,58.3333333 C174.23445,58.3333333 174.950381,58.9698991 174.950381,60.0734652 C174.950381,60.9249993 174.546341,61.5106028 173.831295,61.7478093 L175,63.5185185 L174.354953,63.5185185 Z" id="Fill-52" fill="#FFF1F0" mask="url(#mask-2)"></path>
                <path d="M180.193458,62.979798 C181.365943,62.979798 182.07186,62.3894193 182.07186,61.3719386 L182.07186,58.3333333 L182.777778,58.3333333 L182.777778,61.3719386 C182.777778,62.7215073 181.807141,63.5185185 180.193458,63.5185185 C178.57095,63.5185185 177.592593,62.7215073 177.592593,61.3719386 L177.592593,58.3333333 L178.297407,58.3333333 L178.297407,61.3719386 C178.297407,62.3894193 179.020973,62.979798 180.193458,62.979798" id="Fill-53" fill="#FFF1F0" mask="url(#mask-2)"></path>
                <path d="M187.25412,61.3252853 C188.154351,61.3252853 188.663831,60.9036878 188.663831,60.0882906 C188.663831,59.296058 188.154351,58.8809467 187.25412,58.8809467 L185.936559,58.8809467 L185.936559,61.3252853 L187.25412,61.3252853 Z M188.614212,63.5185185 L187.573099,61.8589998 C187.473861,61.8664125 187.367535,61.8738252 187.25412,61.8738252 L185.936559,61.8738252 L185.936559,63.5185185 L185.37037,63.5185185 L185.37037,58.3333333 L187.25412,58.3333333 C188.493709,58.3333333 189.20964,58.9698991 189.20964,60.0734652 C189.20964,60.9249993 188.8056,61.5106028 188.090555,61.7478093 L189.259259,63.5185185 L188.614212,63.5185185 Z" id="Fill-54" fill="#FFF1F0" mask="url(#mask-2)"></path>
                <path d="M195.591177,61.644958 L194.430287,58.9773118 L193.284012,61.644958 L195.591177,61.644958 Z M195.824999,62.1925714 L193.042883,62.1925714 L192.472941,63.5185185 L191.851852,63.5185185 L194.145317,58.3333333 L194.751792,58.3333333 L197.037037,63.5185185 L196.402247,63.5185185 L195.824999,62.1925714 Z" id="Fill-55" fill="#FFF1F0" mask="url(#mask-2)"></path>
                <polygon id="Fill-56" fill="#FFF1F0" mask="url(#mask-2)" points="200.165739 58.3333333 200.165739 62.9700766 202.222222 62.9700766 202.222222 63.5185185 199.62963 63.5185185 199.62963 58.3333333"></polygon>
                <path d="M28.9565838,16.9260966 C29.0046296,16.9465779 29.0545596,16.9662058 29.1026055,16.9849804 C29.4624785,17.0925073 29.8383667,17.2307561 30.2293282,17.3672982 C30.3301303,17.4022871 32.4055233,18.1481481 33.5435508,18.1481481 C35.0480459,18.1481481 36.2962963,17.0651988 36.2962963,14.2592593 L35.3777724,14.2592593 C35.3777724,15.0733914 35.0650032,15.5555556 34.4309862,15.7151391 C34.2755437,15.7552483 34.1059701,15.7799966 33.9100183,15.7799966 C33.1940407,15.7799966 30.3470876,14.7516641 30.3470876,14.7516641 C29.7224914,14.5707459 29.0639804,14.4273767 28.4054694,14.4273767 C27.2787468,14.4273767 26.3611649,14.9837856 25.9259259,16.3184844 C26.0851367,16.2766684 26.2594208,16.2502133 26.461025,16.2502133 C27.194902,16.2502133 28.0390019,16.6222905 28.9565838,16.9260966" id="Fill-57" fill="#FFF1F0" mask="url(#mask-2)"></path>
                <path d="M33.2175926,37.7931591 C29.0640884,36.0993407 24.9537037,34.23811 24.9537037,30.766767 C24.9537037,28.0152969 27.0304558,25.8990087 30.0387881,25.8990087 C33.2597092,25.8990087 35.1248753,27.8025848 36.8195692,32.036146 L37.6669161,34.1534191 L38.9394407,34.1534191 L38.9394407,24.6296296 L38.091091,24.6296296 C38.0870798,24.6493252 38.0800604,24.6670512 38.0760493,24.6867468 L38.0760493,28.1068813 C38.0760493,28.1068813 37.1274218,27.1831594 36.0023055,26.47018 C35.6292723,26.2633766 35.2361836,26.0674057 34.8280532,25.8990087 C33.598648,25.3908631 31.8187181,24.8403722 29.8272021,24.8403722 C24.1063568,24.8403722 20.7159662,28.2270242 20.7159662,32.2478733 C20.7159662,37.2003226 24.6568816,39.444632 28.5556803,41.3482082 C32.4975984,43.169063 36.3963971,45.0746087 36.3963971,48.7566941 C36.3963971,52.3540887 34.108059,54.6821042 30.2513769,54.6821042 C30.1871992,54.6821042 30.1260297,54.6752108 30.061852,54.674226 C27.6561889,54.6328653 24.9807787,53.79088 22.3535018,52.0222185 C20.7701162,50.9409321 20.5334607,50.0053928 20.5073885,49.2284029 L20.5073885,46.3213378 L19.4444444,46.3213378 L19.4444444,49.6489031 L19.4444444,50.8493477 L19.4444444,51.0847097 C20.2917914,51.9729796 21.2664911,52.7351978 22.3685435,53.4117404 C24.2337095,54.5974133 26.903103,55.7407407 30.2513769,55.7407407 C37.243744,55.7407407 41.4814815,51.4658188 41.4814815,47.0628757 C41.4814815,42.1104265 37.3710968,39.5716684 33.2175926,37.7931591" id="Fill-58" fill="#FFF1F0" mask="url(#mask-2)"></path>
            </g>
        </g>
    </g>
</svg>