<?xml version="1.0" encoding="UTF-8"?>
<svg width="133px" height="130px" viewBox="0 0 133 130" version="1.1" xmlns="http://www.w3.org/2000/svg" xmlns:xlink="http://www.w3.org/1999/xlink">
    <!-- Generator: Sketch 59.1 (86144) - https://sketch.com -->
    <title>Group 68 Copy</title>
    <desc>Created with Sketch.</desc>
    <defs>
        <polygon id="path-1" points="0 0.00502715356 12.6698292 0.00502715356 12.6698292 9.68698408 0 9.68698408"></polygon>
    </defs>
    <g id="Welcome" stroke="none" stroke-width="1" fill="none" fill-rule="evenodd">
        <g id="Landing-desktop" transform="translate(-654.000000, -80.000000)">
            <g id="Group-68-Copy" transform="translate(654.000000, 80.000000)">
                <path d="M13.2480066,90.9433188 L13.0300402,90.3875493 L14.0667677,89.3562416 C15.0916062,88.3299484 15.6670375,87.1381779 15.278661,86.1494932 C14.9632041,85.3463435 14.2181553,85.0204035 13.5143219,85.3262857 C12.4831426,85.7767515 12.3531554,87.1222988 12.2199977,88.4979329 C12.1098256,89.8627023 11.80388,91.2843023 10.4556586,91.8718301 C9.34284098,92.3582329 7.76872715,91.6704158 7.01654486,89.7548913 C6.73992566,89.0503594 6.6836507,88.4528027 6.68919893,88.0449598 C6.68840633,87.7992512 6.72565877,87.5811221 6.77797071,87.39893 C6.69553977,87.3621572 6.61707186,87.3395922 6.52750748,87.32037 C6.36502342,87.2894475 6.17876121,87.2693897 5.98774337,87.3095054 L5.84269663,86.9392709 L8.77295788,85.6597474 L8.99013169,86.2163527 L8.38458135,86.769615 C7.32328305,87.7390776 7.00941141,88.5129763 7.37876541,89.4531879 C7.65062898,90.1451836 8.21337864,90.3900565 8.81100292,90.1293045 C9.71378019,89.7356692 9.80810021,88.3341271 9.89211635,86.9375994 C9.97930292,85.5527722 10.2971376,84.0542838 11.6802336,83.4492054 C13.0387588,82.8566631 14.7713937,83.6355762 15.6646597,85.9096347 C16.0720587,86.9467926 16.1045555,87.9020476 16.0435249,88.6232944 C16.0038947,89.0461807 15.9373158,89.436473 15.8263511,89.8184079 L13.2480066,90.9433188 Z" id="Fill-1" fill="#FFFFFF"></path>
                <path d="M10.3411282,75.8044261 L7.91889582,77.583361 L7.9354581,77.6673638 L10.8222622,78.2291327 L10.3411282,75.8044261 Z M14.2175282,80.3370787 C14.1545915,80.2233248 14.0651553,80.1148212 13.9707503,79.9783166 C13.8076119,79.7700596 13.5484123,79.4839249 13.181558,79.2082907 L4.46317761,77.5632353 L4.38202247,77.1519715 L11.8814196,71.6296606 C12.0139178,71.2717736 12.109979,70.9357623 12.1489003,70.6548778 C12.1836811,70.4894972 12.1952747,70.3442424 12.2068682,70.1989875 L12.5960817,70.1123596 L13.6287394,75.3187848 L13.239526,75.4045377 C13.1757612,75.2899088 13.1128246,75.1752799 13.020904,75.0527758 C12.8809527,74.8270182 12.6681275,74.5741347 12.4114123,74.3020005 L10.8164654,75.4692898 L11.3812389,78.3201358 L13.0672783,78.6325213 C13.3008064,78.237883 13.4324764,77.879996 13.5028661,77.6209872 C13.5409593,77.4687321 13.5782244,77.3182271 13.5931305,77.1869726 L13.9823439,77.0994697 L14.6067416,80.2513258 L14.2175282,80.3370787 Z" id="Fill-3" fill="#FFFFFF"></path>
                <g id="Group-7" transform="translate(0.000000, 59.887640)">
                    <mask id="mask-2" fill="white">
                        <use xlink:href="#path-1"></use>
                    </mask>
                    <g id="Clip-6"></g>
                    <path d="M12.2491551,9.62563577 C12.1930652,9.49015824 12.1212,9.35382865 12.0361888,9.20471816 C11.8801888,8.94654401 11.6812449,8.64747097 11.3990427,8.33561704 L3.89614382,8.38588858 C3.68843596,8.70029869 3.53681798,9.0019279 3.42551461,9.26095412 C3.37117753,9.41091667 3.31596404,9.54895037 3.27477303,9.68527996 L2.85409888,9.68698408 L2.82955955,6.27874438 L8.75931236,1.87700281 L8.75843596,1.80883801 L4.06090787,1.83951217 C3.78308764,2.15477434 3.58852584,2.45640356 3.43515506,2.7171339 C3.35277303,2.86709644 3.28441348,3.00427809 3.2292,3.14060768 L2.80852584,3.14401592 L2.78661573,0.00758333333 L3.20641348,0.00502715356 C3.26425618,0.140504682 3.33524494,0.27598221 3.41937978,0.425944757 C3.57625618,0.684118914 3.7752,0.982339888 4.05740225,1.29504588 L12.6119865,1.23795787 L12.6163685,1.9877706 L4.87333483,7.76558895 L4.87421124,7.83290169 L11.3946607,7.79115075 C11.6733573,7.47588858 11.8670427,7.17425936 12.0204135,6.91438109 C12.1027955,6.76356648 12.1720315,6.62638483 12.2272449,6.49005524 L12.6487955,6.486647 L12.6698292,9.62222753 L12.2491551,9.62563577 Z M0.323042697,4.67346348 C0.488683146,4.33178745 0.640301124,4.01737734 0.638548315,3.70296723 C0.635919101,3.39026124 0.465896629,3.159353 0.00315505618,3.12015824 L-0.000350561798,2.68475562 C1.24852584,2.67623502 1.8252,3.06818258 1.83133483,3.83077622 C1.83396404,4.25425 1.68234607,4.65130993 1.51670562,4.99298596 C1.36508764,5.33466199 1.21259326,5.66355712 1.21522247,5.94984925 C1.21697528,6.26255524 1.40102022,6.49261142 1.84973933,6.53010206 L1.85324494,6.9672088 C0.632413483,6.9757294 0.027694382,6.59826685 0.0215595506,5.82033614 C0.0189303371,5.39856648 0.170548315,5.01513951 0.323042697,4.67346348 L0.323042697,4.67346348 Z" id="Fill-5" fill="#FFFFFF" mask="url(#mask-2)"></path>
                </g>
                <path d="M4.38202247,56.8837927 L5.31615446,51.9147216 L5.69529266,51.9972211 L5.76224686,52.4097182 C5.8203276,52.6632954 5.90341534,52.9924247 6.03409701,53.3467381 L10.5232546,54.3245735 C12.8117974,54.8239121 13.8499907,54.1283117 14.1057073,52.7666368 C14.3517438,51.4596721 13.591854,50.2456279 11.6953564,49.8331307 L7.08035711,48.8283745 C6.7681731,49.0862937 6.53504344,49.3468183 6.34789438,49.5760798 C6.24383304,49.7080789 6.15429189,49.8305255 6.07927093,49.9555772 L5.69932605,49.8730778 L6.2873936,46.741573 L6.66733848,46.8249409 C6.69153879,46.9725714 6.73025928,47.1219388 6.77785323,47.2878061 C6.86820105,47.5761199 6.98839593,47.9156702 7.18280509,48.2838782 L11.798611,49.287766 C14.0234262,49.7732101 14.9212578,51.2295421 14.5098525,53.4214218 C13.9798657,56.2402971 12.4141056,57.3579473 10.0497352,56.8429772 L5.5605776,55.8651418 C5.31212108,56.1369557 5.11690524,56.4061644 4.97170338,56.6154524 L4.76196735,56.9662921 L4.38202247,56.8837927 Z" id="Fill-8" fill="#FFFFFF"></path>
                <path d="M16.3478571,43.8813757 C17.0065639,42.3861326 16.4098636,40.8935485 13.3778352,39.5932985 C10.3458069,38.2948212 8.8333873,38.8824598 8.20343714,40.3130006 L7.94462737,40.8970938 L16.1196012,44.4007666 L16.3478571,43.8813757 Z M14.67458,48.033844 C14.6871611,47.8991214 14.6988434,47.7652852 14.6907556,47.6066317 C14.7015394,47.3336412 14.6628976,46.9932895 14.5972966,46.6077348 L7.34702842,43.501139 C7.01722569,43.7156315 6.74583489,43.9389873 6.54363976,44.1153675 L6.23810044,44.4167206 L5.84269663,44.2474311 L7.61841922,40.2163903 C9.10747404,36.8359178 11.7423013,35.8006813 14.5245063,36.993685 C17.3058127,38.1858023 18.3356599,40.7916202 16.8466051,44.1720928 L15.0708825,48.2022472 L14.67458,48.033844 Z" id="Fill-10" fill="#FFFFFF"></path>
                <path d="M22.0393654,32.6835024 C22.6527841,31.815339 22.3881551,30.2582685 19.5102064,28.1713372 C16.6331254,26.0861632 15.0922039,26.3348376 14.4779176,27.2038797 C13.8644989,28.0720432 14.1291279,29.6291136 17.0070765,31.7151663 C19.8841576,33.8003402 21.4250791,33.5516659 22.0393654,32.6835024 M14.0831432,26.9174209 C15.6978138,24.6319016 18.6989668,24.1284019 21.1257447,25.8866965 C23.5525226,27.6449911 24.0488104,30.6844419 22.4341398,32.9699612 C20.8186016,35.2563593 17.8174486,35.7589802 15.3906707,34.0006856 C12.9647604,32.242391 12.4676049,29.2029403 14.0831432,26.9174209" id="Fill-12" fill="#FFFFFF"></path>
                <path d="M29.628888,12.5278957 C30.2526123,12.0344216 30.901217,11.7917001 31.3868125,11.6765859 C31.6682177,11.6150132 31.9496229,11.57218 32.2044319,11.5677182 C32.2250225,11.4793748 32.2275963,11.3883542 32.2241646,11.2652088 C32.2207328,11.0715671 32.2052898,10.8145679 32.1014788,10.4843953 L32.4292129,10.2247191 L34.9618596,13.6915308 L34.4711164,14.0797066 L33.2571275,13.246244 C32.0448546,12.4118891 30.9689945,12.0968867 30.138506,12.7527699 C29.209354,13.4871808 28.9785675,15.1764149 31.0633681,18.0292841 C33.1481688,20.8821534 34.7748281,21.1016735 35.7031221,20.368155 C36.5782236,19.6765774 36.543048,18.4495848 36.0952019,17.010211 L35.7159912,15.7850032 L36.2084503,15.395935 L37.9775281,17.8169029 C37.8617058,18.1774156 37.7072762,18.5325742 37.5039437,18.8913022 C37.1478975,19.5132758 36.6279843,20.2655338 35.8300976,20.8955387 C33.699826,22.5803111 30.6223856,22.1439479 28.8773302,19.7568896 C27.0919516,17.3127205 27.4986164,14.212668 29.628888,12.5278957" id="Fill-14" fill="#FFFFFF"></path>
                <path d="M42.58836,11.1127271 L40.4307839,9.23978788 L40.3606909,9.27323322 L40.5314923,12.0914015 L42.58836,11.1127271 Z M39.4382022,15.7226102 C39.5260199,15.6382005 39.6025583,15.5314939 39.7016553,15.4128426 C39.8498981,15.2153558 40.0440638,14.9119588 40.2060028,14.509022 L39.644453,6.00833071 L39.9933068,5.84269663 L46.6795367,11.641482 C47.0308075,11.6860758 47.3538799,11.7027985 47.6133047,11.6781126 C47.7687984,11.6749274 47.9017334,11.6542231 48.0346685,11.6327225 L48.2022472,11.9775281 L43.787998,14.0782141 L43.6204193,13.7326123 C43.708237,13.6489989 43.7960547,13.5645892 43.8846781,13.4523084 C44.0538681,13.2723406 44.2311149,13.0191116 44.4148069,12.7188999 L42.9968331,11.4838111 L40.580638,12.6336939 L40.694237,14.2772936 C41.1019045,14.4078897 41.4531753,14.4524835 41.700515,14.4620393 C41.8455351,14.4652245 41.9889438,14.4668172 42.1105995,14.4508908 L42.2781782,14.7964927 L39.605781,16.0674157 L39.4382022,15.7226102 Z" id="Fill-16" fill="#FFFFFF"></path>
                <path d="M50.2525187,11.2989146 C50.3777193,11.217812 50.5002561,11.1242958 50.6334483,11.014228 C50.8625388,10.8156094 51.1227076,10.5698189 51.3775486,10.2454085 L49.68512,3.34093007 C49.3192855,3.21431072 48.9800895,3.1381736 48.7190328,3.08438107 L48.2972576,3.02479549 L48.2022472,2.63831683 L52.1482873,1.79832575 L55.7622349,6.73068721 L55.8306069,6.71661839 L56.7451931,0.819301652 L60.593559,0 L60.6885694,0.386478658 L60.3360541,0.611579718 C60.1256105,0.764681542 59.8565623,0.971575898 59.5857382,1.23226279 L61.325228,8.33039437 C61.6910625,8.45535856 62.0329224,8.54639208 62.2913152,8.58694337 C62.4449302,8.62087405 62.5790103,8.63328771 62.7130904,8.64652895 L62.8089888,9.03300761 L57.8924217,10.0798931 L57.7974113,9.69258682 C57.8862061,9.63217366 57.9865442,9.57093293 58.0815546,9.48238215 C58.2538165,9.35079734 58.4820191,9.15217876 58.7634985,8.8757679 L57.1980465,2.48852532 L57.1287866,2.50259414 L55.8856596,10.506923 L55.4008401,10.6103702 L50.4824972,3.91775154 L50.4132373,3.93347551 L51.931628,10.1262374 C52.3134456,10.3165802 52.6615211,10.432441 52.9598716,10.5185091 C53.1312455,10.5631983 53.2857484,10.5987841 53.4366996,10.6203011 L53.53171,11.0076073 L50.3475291,11.6853933 L50.2525187,11.2989146 Z" id="Fill-18" fill="#FFFFFF"></path>
                <path d="M67.1803813,4.87036974 C68.2115381,4.86412487 68.8721229,4.23651564 68.861099,2.67529864 C68.8500751,1.11564285 68.1827064,0.495839704 67.1515496,0.501268175 L66.5418442,0.504426397 L66.5706759,4.87349218 L67.1803813,4.87036974 Z M62.8649562,8.39013347 C62.9870668,8.35188366 63.1083295,8.31363384 63.244008,8.25040455 C63.4873814,8.16141518 63.7706103,8.00997713 64.0818229,7.82106987 L64.0360314,0.955618111 C63.7222748,0.770613896 63.4237821,0.634788017 63.1922806,0.536431346 L62.8115327,0.400605467 L62.8089888,0.0266939949 L67.5551932,0.000153305915 C70.2670677,-0.0154588641 71.5627977,1.16325997 71.5730337,2.66046708 C71.5831494,4.1592354 70.3026833,5.35200519 67.5908088,5.36761736 L66.5740679,5.37308162 L66.5901797,7.80779953 C66.9030883,7.99202314 67.2567004,8.13955814 67.568761,8.22620569 C67.7459911,8.28787376 67.9088054,8.32378175 68.0851874,8.36047035 L68.0877314,8.73438182 L62.8675001,8.76404494 L62.8649562,8.39013347 Z" id="Fill-20" fill="#FFFFFF"></path>
                <path d="M78.0824603,11.1131262 C78.9986288,11.3151649 80.1423023,10.4422539 80.7464201,6.98687324 C81.3505379,3.52976573 80.5873204,2.23637236 79.6703833,2.03174336 C78.7534462,1.82970461 77.6105413,2.70520587 77.0064235,6.16058655 C76.4015371,9.61683065 77.1655232,10.9110874 78.0824603,11.1131262 M79.7533918,1.55859279 C82.1660201,2.09131889 83.6693973,4.6055789 83.1590484,7.51787252 C82.6494681,10.4327564 80.4120801,12.1198663 77.9994518,11.5880036 C75.5860549,11.0552775 74.0834463,8.54101748 74.5937952,5.62699703 C75.1033755,2.71297659 77.3407635,1.02500326 79.7533918,1.55859279" id="Fill-22" fill="#FFFFFF"></path>
                <path d="M87.2169816,8.66172444 L87.7321041,8.89747224 L87.6949782,10.4444596 C87.662493,11.9785411 88.0484482,13.28806 88.9642216,13.7070716 C89.7082876,14.0477874 90.4353375,13.7105131 90.7184229,12.9464838 C91.132996,11.8262515 90.3409757,10.7490389 89.529619,9.64687493 C88.7097542,8.57224352 87.9881185,7.3023028 88.5295386,5.83877356 C88.9781439,4.62906038 90.5134567,3.91665462 92.2877678,4.72972642 C92.9390188,5.02828294 93.370608,5.41976196 93.634357,5.71917887 C93.7960096,5.89728031 93.9143485,6.08570648 93.9971085,6.25864556 C94.0783215,6.21992785 94.1479326,6.17690818 94.2221845,6.1227034 C94.3536723,6.01859579 94.4959884,5.88953677 94.6004052,5.71401651 L94.9438202,5.8723289 L93.7658447,9.05492424 L93.2507221,8.82003683 L93.3040907,7.95103946 C93.3984525,6.42986385 93.1068591,5.62711677 92.2367196,5.22875461 C91.5962969,4.93450006 91.0463688,5.18831612 90.8058235,5.83791317 C90.4430721,6.8179013 91.2969689,7.91060096 92.15628,8.98867394 C93.0039893,10.0615846 93.7689385,11.3960548 93.2128227,12.8983017 C92.6659884,14.3755973 90.9620619,15.1430682 88.8567111,14.1785672 C87.8945302,13.7380457 87.2463729,13.0686596 86.8140103,12.4982188 C86.564957,12.1600842 86.3538032,11.8262515 86.1797753,11.4640259 L87.2169816,8.66172444 Z" id="Fill-24" fill="#FFFFFF"></path>
                <path d="M21.7334192,102.51903 C22.0008764,102.842676 21.9611699,103.264464 21.6382734,103.531172 C21.3153768,103.798629 20.8935886,103.758923 20.6261313,103.436026 C20.3586741,103.11313 20.3983807,102.691341 20.7212772,102.423884 C21.0441737,102.156427 21.4667112,102.196133 21.7334192,102.51903" id="Fill-26" fill="#FFFFFF"></path>
                <path d="M24.993359,113.890333 C25.1066081,113.936896 25.2198572,113.983458 25.3681976,114.025709 C25.6026711,114.108486 25.9368357,114.189539 26.344373,114.282663 L30.9461147,108.195946 C30.791394,107.791545 30.6430537,107.464747 30.5202342,107.212966 L30.3224471,106.843055 L30.4835479,106.629213 L33.5955056,109.378971 L33.4336073,109.592813 L33.0579711,109.456575 C32.805952,109.376385 32.4701924,109.2755 32.0825933,109.200483 L27.4800541,115.2872 C27.6260019,115.682979 27.7759373,116.028747 27.9067321,116.269318 C27.9753195,116.41849 28.0399194,116.529722 28.1045192,116.640091 L27.9426209,116.853933 L24.8314607,114.104175 L24.993359,113.890333 Z" id="Fill-28" fill="#FFFFFF"></path>
                <path d="M30.8163719,118.677096 C30.9849224,118.693429 31.1543509,118.709762 31.3369473,118.703228 C31.6450789,118.704862 32.0690889,118.677912 32.4895875,118.604414 L36.3908312,112.403618 C36.1573184,112.05001 35.9448744,111.768267 35.7719345,111.551856 L35.4980398,111.23663 L35.6402544,111.011236 L38.1246197,112.364419 L38.5661871,120.324271 L38.62676,120.356937 L41.6413573,115.565673 C41.5404025,115.207982 41.351661,114.863357 41.1866219,114.60693 C41.0918122,114.448501 40.9882238,114.302321 40.8907805,114.173291 L41.0321172,113.94708 L43.8202247,115.465225 L43.6780102,115.69062 C43.5094596,115.675104 43.3215959,115.662854 43.1258314,115.662854 C42.8062876,115.654687 42.3893005,115.670204 42.0056724,115.764118 L37.6426704,122.696629 L37.1580874,122.432852 L36.637512,112.916472 L36.5769391,112.883806 L32.8530247,118.802043 C32.9899721,119.179333 33.1725685,119.536208 33.3244396,119.785285 C33.407837,119.936364 33.5052803,120.065395 33.6036015,120.195241 L33.461387,120.419819 L30.6741573,118.90249 L30.8163719,118.677096 Z" id="Fill-30" fill="#FFFFFF"></path>
                <path d="M42.4465959,124.574864 C42.6171337,124.555374 42.7876715,124.534998 42.9670915,124.488044 C43.2717502,124.421601 43.6838833,124.299345 44.0818049,124.129249 L46.464005,116.703524 C46.1495759,116.380166 45.8724519,116.127681 45.6503975,115.937209 L45.3048808,115.663462 L45.3919261,115.393258 L48.4376249,116.365991 L48.9465737,124.267452 L48.9741085,124.277197 L53.9880979,118.136932 L56.9662921,119.087517 L56.8792468,119.35772 L56.4386908,119.380754 C56.1473553,119.407332 55.7609806,119.447198 55.3310832,119.533131 L52.8618377,127.22906 C53.1620553,127.547989 53.4489497,127.819078 53.6754452,127.994489 C53.8033486,128.109658 53.9117112,128.18939 54.0209619,128.269122 L53.9339166,128.539326 L49.8054803,127.221087 L49.8916374,126.951769 C50.0266465,126.949997 50.1616556,126.948226 50.3188702,126.92342 C50.5924413,126.906588 50.9290758,126.835715 51.3056802,126.732949 L53.6656748,119.373667 L53.5981703,119.352405 L47.7066217,126.551336 L47.4366035,126.464517 L46.8299507,117.192548 L46.7615579,117.170401 L44.4877204,124.258593 C44.7124395,124.628905 44.9771284,124.965552 45.1867478,125.196775 C45.305769,125.338521 45.4327841,125.45369 45.5597993,125.568859 L45.4736421,125.839062 L42.3595506,124.845067 L42.4465959,124.574864 Z" id="Fill-32" fill="#FFFFFF"></path>
                <path d="M62.4289975,129.634506 C63.8612895,129.765854 65.203757,128.55395 65.4781299,125.132774 C65.7516862,121.712473 64.6207145,120.272899 63.1884226,120.140676 C61.7569472,120.008452 60.4136631,121.221231 60.1401068,124.642408 C59.8657339,128.062709 60.9967056,129.503158 62.4289975,129.634506 M63.2161865,119.79129 C65.5597885,120.006701 67.405273,122.356953 67.1709128,125.28864 C66.9349194,128.234336 64.7448356,130.199302 62.4012336,129.983891 C60.0576316,129.768481 58.2113305,127.432238 58.4473239,124.486542 C58.6816841,121.554855 60.8725845,119.575879 63.2161865,119.79129" id="Fill-34" fill="#FFFFFF"></path>
                <path d="M75.3302423,129.088438 C76.717925,128.927625 77.325699,128.056266 77.1674331,126.485722 C77.0099829,124.916053 76.2423113,124.203758 74.8546285,124.363697 L73.3625229,124.535871 L73.8381367,129.260612 L75.3302423,129.088438 Z M74.3586197,123.999247 C75.5651939,123.860284 76.1117826,123.163721 75.985333,121.913054 C75.8670414,120.731432 75.1605551,120.110905 73.9809024,120.246372 L72.9431996,120.366982 L73.3209169,124.118982 L74.3586197,123.999247 Z M71.0635871,129.722074 C71.176168,129.667013 71.2879332,129.611952 71.4241725,129.525428 C71.6477028,129.401323 71.9422081,129.198559 72.2978986,128.946853 L71.5000423,121.025089 C71.1157985,120.859033 70.7894769,120.74192 70.5316828,120.658891 L70.1400969,120.549644 L70.1123596,120.271718 L73.8740321,119.837349 C76.5327375,119.529708 77.5394397,120.398445 77.6716,121.718156 C77.8396556,123.385712 76.3573396,123.909227 75.7993297,123.973027 L75.8058561,124.042946 C77.4921231,123.848048 78.7141976,124.901195 78.8610423,126.360743 C79.0144134,127.889336 78.0313696,129.197685 75.3718483,129.505327 L71.0913244,130 L71.0635871,129.722074 Z" id="Fill-36" fill="#FFFFFF"></path>
                <path d="M82.4450349,126.817886 C82.5408168,126.747842 82.6358445,126.676954 82.7489728,126.573998 C82.9375199,126.419564 83.1796143,126.179896 83.4714852,125.883686 L81.704422,118.44722 C81.331853,118.348483 81.0173565,118.288566 80.7714911,118.249747 L80.3989221,118.207552 L80.3370787,117.946786 L84.0099756,116.853933 L84.071819,117.114698 L83.7678812,117.358586 C83.571038,117.529054 83.3138598,117.75944 83.0453688,118.048054 L84.8124319,125.48452 C85.1736881,125.587476 85.5025142,125.656676 85.7453628,125.681994 C85.8894128,125.709842 86.0032952,125.717437 86.1179318,125.725033 L86.1797753,125.985798 L82.5076325,127.078652 L82.4450349,126.817886 Z" id="Fill-38" fill="#FFFFFF"></path>
                <path d="M89.6753568,125.373104 C89.7687033,125.288981 89.861231,125.20569 89.9684976,125.086585 C90.1494588,124.906678 90.3762745,124.634319 90.6489446,124.298659 L87.719174,117.313933 C87.3040276,117.27562 86.9584818,117.267291 86.689087,117.268123 L86.2829477,117.285614 L86.1797753,117.039908 L89.9750482,115.393258 L90.0782207,115.638132 L89.7850799,115.924651 C89.597568,116.122049 89.3527381,116.386912 89.1046329,116.712577 L92.2145458,124.126248 L94.9854635,122.924369 C95.0968243,122.136442 95.0567017,121.43014 94.9887389,120.894584 C94.954348,120.576415 94.9068559,120.292395 94.834799,120.019203 L95.1967214,119.862617 L96.4044944,122.742796 L89.7785292,125.617978 L89.6753568,125.373104 Z" id="Fill-40" fill="#FFFFFF"></path>
                <path d="M99.8306441,121.006874 C99.915572,120.909536 100.0005,120.813037 100.094961,120.678777 C100.25875,120.473192 100.456338,120.16859 100.692923,119.79518 L96.5964489,113.253374 C96.1562101,113.27603 95.7930998,113.316308 95.5105843,113.356586 L95.0876778,113.432107 L94.9438202,113.203026 L98.6771838,111.011236 L98.8210413,111.240317 L98.5567247,111.568414 C98.3886021,111.79246 98.1710825,112.092866 97.9596292,112.45285 L102.055237,118.994656 C102.483343,118.978713 102.865519,118.942631 103.141101,118.890605 C103.307491,118.871305 103.435749,118.842775 103.564008,118.815084 L103.707865,119.045004 L99.9745016,121.235955 L99.8306441,121.006874 Z" id="Fill-42" fill="#FFFFFF"></path>
                <path d="M108.288181,110.667191 L104.947544,108.886954 L104.893989,108.92938 L106.152105,112.355089 L108.288181,110.667191 Z M106.199515,116.649288 C106.274141,116.50454 106.358426,116.351473 106.424273,116.177609 C106.541919,115.894767 106.70522,115.539552 106.760531,115.166866 L103.707865,106.833858 L103.966863,106.629213 L112.311871,111.04154 C112.71661,110.981645 113.073062,110.908439 113.340839,110.817763 C113.50414,110.775337 113.62881,110.728751 113.752603,110.682997 L113.932584,110.887641 L110.480447,113.614566 L110.300465,113.410754 L110.535758,113.033909 C110.677988,112.800149 110.84919,112.474881 110.97386,112.098036 L108.677117,110.880154 L106.303114,112.755227 L107.095034,114.902326 C107.49275,114.9173 107.890465,114.82912 108.204775,114.770888 C108.397926,114.740109 108.571762,114.689363 108.735063,114.646937 L108.915044,114.850749 L106.379497,116.853933 L106.199515,116.649288 Z" id="Fill-44" fill="#FFFFFF"></path>
                <path d="M113.056744,102.946016 C113.944413,101.840484 113.827454,100.813726 112.717212,99.8755908 C111.584277,98.920447 110.51244,99.0162299 109.660557,100.077899 L108.861043,101.073325 L112.25723,103.941442 L113.056744,102.946016 Z M113.96187,109.367948 C114.009003,109.241729 114.057009,109.114615 114.099777,108.947219 C114.184442,108.684935 114.268234,108.310755 114.364245,107.853324 L108.217767,102.664038 C107.807536,102.836805 107.47586,103.002411 107.220993,103.139372 L106.844803,103.359583 L106.629213,103.177864 L109.425765,99.6947669 C111.067561,97.6493091 112.739033,97.4819127 113.81698,98.3931933 C114.852158,99.2668768 115.072984,100.659758 114.061373,102.032049 L114.115488,102.076808 C115.222239,100.878178 116.336844,101.226399 117.199202,101.842274 C118.082507,102.476948 118.8602,103.151904 119.277413,102.632707 C119.499112,102.3561 119.471182,102.053533 118.996362,101.653394 L118.554709,101.280109 L118.776408,101.003502 L119.154344,101.322182 C119.909343,101.959541 119.975678,102.664933 119.354222,103.439253 C118.324281,104.722028 117.301323,104.081088 116.313278,103.39539 C115.326106,102.709691 114.35639,102.002509 113.380564,103.219042 L112.581924,104.214468 L115.384585,106.581291 C115.786088,106.419266 116.136966,106.251869 116.381359,106.105957 C116.533231,106.029868 116.644954,105.957359 116.757549,105.884851 L116.973138,106.06657 L114.176587,109.550562 L113.96187,109.367948 Z" id="Fill-46" fill="#FFFFFF"></path>
                <path d="M123.234445,100.644275 C123.261264,100.515122 123.288083,100.385097 123.305682,100.217548 C123.348425,99.9513888 123.373568,99.5778937 123.398711,99.123242 L116.826395,95.0654097 C116.461825,95.2957899 116.171008,95.5052264 115.948913,95.6762662 L115.623734,95.9467884 L115.393258,95.8036734 L117.546316,92.0224719 L117.777629,92.1647142 L117.705554,92.5905684 C117.667839,92.8759257 117.624259,93.2546567 117.612525,93.6848741 L124.184841,97.7418337 C124.542706,97.525416 124.851962,97.3098709 125.062323,97.1318499 C125.195579,97.0358582 125.29196,96.948593 125.387502,96.8622004 L125.617978,97.0044427 L123.46492,100.786517 L123.234445,100.644275 Z" id="Fill-48" fill="#FFFFFF"></path>
                <path d="M123.826675,87.1574072 L120.275701,87.0822796 L120.251279,87.1440512 L122.861188,89.6082345 L123.826675,87.1574072 Z M124.884152,93.382976 C124.877639,93.2218692 124.875197,93.0482411 124.849147,92.864596 C124.814142,92.5624163 124.784021,92.1750921 124.657026,91.8203232 L118.314607,85.823476 L118.431833,85.5263048 L127.286472,85.6815684 C127.589306,85.4478383 127.845738,85.2232904 128.023205,85.0221155 C128.137175,84.9119285 128.217768,84.8150974 128.297547,84.7191011 L128.539326,84.8184364 L126.978754,88.7793273 L126.736975,88.6791572 L126.755698,88.2409133 C126.763839,87.9704541 126.753256,87.6065029 126.681618,87.2166745 L124.242664,87.1707632 L123.16972,89.8937191 L124.808443,91.436338 C125.13977,91.2718921 125.42388,91.014789 125.654262,90.8227964 C125.796724,90.7092703 125.915578,90.5857273 126.030362,90.4747055 L126.271327,90.5740408 L125.125116,93.4831461 L124.884152,93.382976 Z" id="Fill-50" fill="#FFFFFF"></path>
                <path d="M127.667883,71.5746468 C127.803228,70.2914151 127.183794,69.5808387 125.822034,69.4461437 C124.434534,69.3082225 123.634915,69.9292712 123.505382,71.1608832 L123.383321,72.3158724 L127.546653,72.7304426 L127.667883,71.5746468 Z M131.681753,75.9292464 C131.655182,75.809876 131.627781,75.6905056 131.576299,75.5420992 C131.508211,75.3017453 131.382,74.978316 131.222574,74.5863295 L123.690548,73.8386514 C123.454731,74.1782118 123.277038,74.4717984 123.145844,74.7048933 L122.961508,75.0630045 L122.696629,75.0363881 L123.122594,70.9931195 C123.372527,68.6186166 124.610566,67.6394568 125.931639,67.7709255 C127.200401,67.8967483 128.090527,68.8283213 127.994207,70.3744905 L128.059804,70.3817495 C128.321361,68.916236 129.381707,68.6057117 130.381438,68.6274887 C131.40691,68.6516854 132.370106,68.7605705 132.434042,68.1572661 C132.467256,67.8362566 132.289563,67.6241322 131.708324,67.5660601 L131.166111,67.5120208 L131.200155,67.1910112 L131.662655,67.2377915 C132.587655,67.3289324 133.002826,67.8249648 132.908167,68.7226624 C132.752063,70.211566 131.612004,70.2543135 130.477758,70.2454414 C129.344342,70.2365693 128.212587,70.2018873 128.064786,71.6141681 L127.942726,72.7691573 L131.377848,73.1103308 C131.612834,72.7836753 131.804643,72.4787969 131.923382,72.2440889 C132.004756,72.1093939 132.056237,71.9972825 132.107718,71.8859777 L132.372597,71.9117875 L131.946632,75.9550562 L131.681753,75.9292464 Z" id="Fill-52" fill="#FFFFFF"></path>
                <path d="M123.586522,64.2696629 L123.189202,60.3635496 L123.462091,60.34098 L123.649166,60.6880863 C123.783036,60.9145614 123.964104,61.2118588 124.203525,61.529391 L129.398712,61.0943407 C131.641035,60.9067788 132.584132,59.8779121 132.452836,58.5883266 C132.32154,57.2987411 131.19995,56.4426493 129.148993,56.614646 L124.022457,57.0426918 C123.778745,57.3508849 123.590812,57.6793128 123.464666,57.9275794 C123.383142,58.0723368 123.315349,58.2155376 123.260428,58.3571818 L122.986681,58.3805298 L122.696629,55.5289659 L122.970376,55.505618 C123.052758,55.6363665 123.148011,55.7655586 123.257854,55.8939723 C123.432056,56.1173345 123.682633,56.4091839 123.984699,56.6706811 L129.111234,56.2426352 C131.449669,56.0465123 132.704271,56.9913263 132.894779,58.8638325 C133.116179,61.0460883 131.949965,62.3193302 129.543738,62.5201226 L124.348551,62.9559512 C124.178639,63.3194011 124.059357,63.6299289 123.973543,63.8743042 L123.85941,64.2470932 L123.586522,64.2696629 Z" id="Fill-54" fill="#FFFFFF"></path>
                <path d="M125.865399,48.4969225 C125.49058,47.1369742 124.65092,46.6685772 123.358696,47.0881829 C122.042738,47.5148855 121.554982,48.4729704 121.91507,49.7779175 L122.253062,51.0003629 L126.20339,49.7193679 L125.865399,48.4969225 Z M131.210249,51.2806915 C131.13905,51.1706891 131.067851,51.0606868 130.963098,50.9302808 C130.808424,50.7147117 130.56782,50.4370445 130.270747,50.1043761 L123.123002,52.4215222 C123.040345,52.8633058 122.992061,53.2341201 122.963417,53.525094 L122.933956,53.9642163 L122.682712,54.0449438 L121.500969,49.7637237 C120.8078,47.2487508 121.554982,45.7477511 122.808743,45.3414522 C124.012583,44.9511213 125.183687,45.5339563 125.696812,47.1440712 L125.759827,47.1236675 C125.428383,45.5277465 126.27459,44.779908 127.192814,44.3940127 C128.135589,43.9992462 129.054632,43.7153692 128.87868,43.0766459 C128.783748,42.7368806 128.540688,42.594055 127.988281,42.7732524 L127.474337,42.9400301 L127.381042,42.6002648 L127.819694,42.4574392 C128.696999,42.1735622 129.267411,42.5071177 129.530112,43.4581056 C129.964672,45.0345102 128.944151,45.5428274 127.908079,45.9979177 C126.872008,46.452121 125.82939,46.8797107 126.241036,48.3745006 L126.579846,49.5978331 L129.83946,48.5412783 C129.926209,48.1128015 129.982677,47.7242448 129.999863,47.4377065 C130.021141,47.2673802 130.025233,47.1325387 130.028506,46.9985842 L130.279749,46.9169696 L131.460674,51.1990768 L131.210249,51.2806915 Z" id="Fill-56" fill="#FFFFFF"></path>
                <path d="M121.555988,35.9507209 L119.199685,38.7152808 L119.229717,38.7754537 L122.743475,38.3330563 L121.555988,35.9507209 Z M126.848135,39.2203936 C126.72476,39.1195405 126.594891,39.0068224 126.442295,38.9059694 C126.195545,38.7347734 125.889542,38.5034047 125.54539,38.369499 L116.9976,39.4382022 L116.853933,39.1492032 L122.706137,32.2361083 C122.728864,31.8411711 122.728864,31.4894567 122.695586,31.2174077 C122.687469,31.0538394 122.667989,30.9267137 122.648508,30.799588 L122.879025,30.6741573 L124.798646,34.5235231 L124.568129,34.6489538 L124.255632,34.3446997 C124.06083,34.1607912 123.784047,33.9285749 123.449635,33.7277163 L121.835206,35.6303641 L123.154996,38.277121 L125.359516,37.9965969 C125.452047,37.6253899 125.445554,37.2304528 125.452047,36.9211136 C125.461787,36.7329676 125.446365,36.5575342 125.438249,36.3931183 L125.668765,36.2685351 L127.078652,39.0958104 L126.848135,39.2203936 Z" id="Fill-58" fill="#FFFFFF"></path>
                <path d="M121.019428,27.9723702 C120.911592,27.9004523 120.803756,27.8293804 120.657407,27.7523859 C120.431466,27.6178571 120.100256,27.4596377 119.695443,27.271805 L113.513712,31.9853902 C113.585602,32.410129 113.666907,32.7587194 113.739654,33.0286232 L113.862894,33.4296713 L113.645511,33.5955056 L111.011236,30.2179015 L111.227763,30.0529134 L111.589784,30.2728976 C111.83541,30.4099647 112.163196,30.5867982 112.551748,30.7526324 L119.112616,25.7505294 L117.188688,23.2841677 C116.376496,23.3738536 115.684122,23.5946839 115.168906,23.7985924 C114.860804,23.9136611 114.591214,24.0338063 114.338741,24.17595 L114.08798,23.8535885 L116.635816,21.9101124 L121.235955,27.807382 L121.019428,27.9723702 Z" id="Fill-60" fill="#FFFFFF"></path>
                <path d="M105.43972,18.8116947 C105.116932,18.5442383 105.077988,18.1224512 105.346104,17.7988064 C105.613471,17.47666 106.035117,17.4377027 106.357904,17.7051592 C106.680692,17.9726157 106.719636,18.3944027 106.452269,18.7180475 C106.184153,19.040194 105.762507,19.0791512 105.43972,18.8116947" id="Fill-62" fill="#FFFFFF"></path>
                <path d="M63.122882,40.5251778 C63.1974492,40.5560485 63.2747445,40.5844821 63.3502211,40.6137281 C63.9058377,40.7753934 68.4662594,42.3595506 70.2295012,42.3595506 C72.5610906,42.3595506 74.494382,40.7339616 74.494382,36.5168539 L73.0730582,36.5168539 C73.0730582,37.7403107 72.5874619,38.4641487 71.6053572,38.705428 C71.3643778,38.7647323 71.1006645,38.8029146 70.7978488,38.8029146 C69.6875248,38.8029146 65.277147,37.2577521 65.277147,37.2577521 C64.3095919,36.985602 63.2892942,36.7711315 62.2680871,36.7711315 C60.5230325,36.7711315 59.1007993,37.6054543 58.4269663,39.611241 C58.6734018,39.5486871 58.9434806,39.50888 59.2562992,39.50888 C60.3929945,39.50888 61.7015582,40.0678032 63.122882,40.5251778" id="Fill-64" fill="#FFFFFF"></path>
                <path d="M70.8429037,67.5865568 C65.3377379,65.2810093 59.8880545,62.7452468 59.8880545,58.0194691 C59.8880545,54.2740163 62.6406374,51.3925067 66.6295638,51.3925067 C70.899214,51.3925067 73.3710732,53.9851858 75.618519,59.748205 L76.7422419,62.6305641 L78.4274122,62.6305641 L78.4274122,49.6629213 L77.3036893,49.6629213 C77.2987207,49.6909549 77.2887836,49.7155905 77.2829869,49.7427745 L77.2829869,54.3988931 C77.2829869,54.3988931 76.025941,53.1399316 74.5345446,52.1706502 C74.0393446,51.8886157 73.5193019,51.6210227 72.9777287,51.3925067 C71.3480407,50.7001629 68.9888023,49.9509024 66.3488401,49.9509024 C58.7643316,49.9509024 54.2702681,54.5619974 54.2702681,60.0370356 C54.2702681,66.7795302 59.4947101,69.8343382 64.6636698,72.4278667 C69.8881118,74.905863 75.0562435,77.4993916 75.0562435,82.5131504 C75.0562435,87.4113769 72.0229369,90.5817171 66.9102875,90.5817171 C66.8249939,90.5817171 66.7438407,90.5715231 66.6593752,90.5698241 C63.4703871,90.5129075 59.9236625,89.3677792 56.4407012,86.9602915 C54.3423122,85.4872557 54.0284648,84.2138527 53.9936848,83.1562231 L53.9936848,79.1975454 L52.5842697,79.1975454 L52.5842697,83.7279377 L52.5842697,85.3632284 L52.5842697,85.6834906 C53.7088207,86.8931809 55.0006465,87.9304224 56.4614035,88.8529812 C58.9332627,90.4661849 62.4725344,92.0224719 66.9102875,92.0224719 C76.1799664,92.0224719 81.7977528,86.2016866 81.7977528,80.2076029 C81.7977528,73.4651082 76.3480694,70.006787 70.8429037,67.5865568" id="Fill-66" fill="#FFFFFF"></path>
            </g>
        </g>
    </g>
</svg>